<svg width="610" height="603" viewBox="0 0 610 603" fill="none" xmlns="http://www.w3.org/2000/svg">
<g id="Frame 7">
<g id="Frame 8">
<g id="Group 1">
<g id="Color/Form details 02">
<path id="Fill 3 Copy 2" fill-rule="evenodd" clip-rule="evenodd" d="M224.203 252.415C220.885 252.415 218.195 250.013 218.195 247.05V119.29H416.549V247.05C416.549 250.013 413.859 252.415 410.541 252.415H224.203Z" fill="#E4EBF7"/>
<path id="Rectangle" d="M401.352 130.868H286.496C285.173 130.868 284.102 131.94 284.102 133.262V240.411C284.102 241.734 285.173 242.805 286.496 242.805H401.352C402.674 242.805 403.746 241.734 403.746 240.411V133.262C403.746 131.94 402.674 130.868 401.352 130.868Z" fill="white"/>
<path id="Rectangle_2" d="M272.14 129.978H233.058C231.736 129.978 230.664 131.049 230.664 132.372V239.521C230.664 240.843 231.736 241.915 233.058 241.915H272.14C273.462 241.915 274.534 240.843 274.534 239.521V132.372C274.534 131.049 273.462 129.978 272.14 129.978Z" fill="white"/>
<path id="Rectangle_3" d="M263.752 174.509H241.821C241.07 174.509 240.461 175.118 240.461 175.869V179.232C240.461 179.983 241.07 180.592 241.821 180.592H263.752C264.503 180.592 265.112 179.983 265.112 179.232V175.869C265.112 175.118 264.503 174.509 263.752 174.509Z" fill="#597EF7"/>
<path id="Rectangle_4" d="M263.773 186.087H241.8C241.061 186.087 240.461 186.687 240.461 187.426V190.646C240.461 191.386 241.061 191.986 241.8 191.986H263.773C264.512 191.986 265.112 191.386 265.112 190.646V187.426C265.112 186.687 264.512 186.087 263.773 186.087Z" fill="#ADC6FF"/>
<path id="Rectangle_5" d="M263.773 197.665H241.8C241.061 197.665 240.461 198.265 240.461 199.004V202.225C240.461 202.964 241.061 203.564 241.8 203.564H263.773C264.512 203.564 265.112 202.964 265.112 202.225V199.004C265.112 198.265 264.512 197.665 263.773 197.665Z" fill="#FF7946"/>
<path id="Rectangle_6" d="M263.773 209.243H241.8C241.061 209.243 240.461 209.843 240.461 210.582V213.803C240.461 214.542 241.061 215.142 241.8 215.142H263.773C264.512 215.142 265.112 214.542 265.112 213.803V210.582C265.112 209.843 264.512 209.243 263.773 209.243Z" fill="#ADC6FF"/>
<path id="Rectangle_7" d="M365.87 212.806H297.276C296.394 212.806 295.68 213.52 295.68 214.402V214.408C295.68 215.289 296.394 216.004 297.276 216.004H365.87C366.752 216.004 367.466 215.289 367.466 214.408V214.402C367.466 213.52 366.752 212.806 365.87 212.806Z" fill="#597EF7"/>
<path id="Rectangle_8" d="M365.87 229.728H297.276C296.394 229.728 295.68 230.442 295.68 231.324V231.33C295.68 232.211 296.394 232.926 297.276 232.926H365.87C366.752 232.926 367.466 232.211 367.466 231.33V231.324C367.466 230.442 366.752 229.728 365.87 229.728Z" fill="#597EF7"/>
<path id="Rectangle_9" d="M389.799 220.821H297.276C296.394 220.821 295.68 221.536 295.68 222.417V222.423C295.68 223.305 296.394 224.02 297.276 224.02H389.799C390.68 224.02 391.395 223.305 391.395 222.423V222.417C391.395 221.536 390.68 220.821 389.799 220.821Z" fill="#597EF7"/>
<path id="Rectangle_10" d="M388.675 141.556H298.872C297.109 141.556 295.68 142.985 295.68 144.748V202.489C295.68 204.252 297.109 205.681 298.872 205.681H388.675C390.438 205.681 391.867 204.252 391.867 202.489V144.748C391.867 142.985 390.438 141.556 388.675 141.556Z" fill="#597EF7"/>
<path id="Fill 1" fill-rule="evenodd" clip-rule="evenodd" d="M416.738 121.444H218.395V107.765C218.395 104.798 220.81 102.392 223.789 102.392H411.343C414.323 102.392 416.738 104.798 416.738 107.765V121.444Z" fill="#A3B5D6"/>
<path id="Fill 5" fill-rule="evenodd" clip-rule="evenodd" d="M232.302 111.337C232.302 113.199 230.796 114.709 228.938 114.709C227.08 114.709 225.573 113.199 225.573 111.337C225.573 109.475 227.08 107.965 228.938 107.965C230.796 107.965 232.302 109.475 232.302 111.337Z" fill="#FF7946"/>
<path id="Fill 7" fill-rule="evenodd" clip-rule="evenodd" d="M244.865 111.337C244.865 113.199 243.358 114.709 241.5 114.709C239.642 114.709 238.136 113.199 238.136 111.337C238.136 109.475 239.642 107.965 241.5 107.965C243.358 107.965 244.865 109.475 244.865 111.337Z" fill="#FAAD14"/>
<path id="Fill 9" fill-rule="evenodd" clip-rule="evenodd" d="M257.428 111.337C257.428 113.199 255.921 114.709 254.063 114.709C252.205 114.709 250.699 113.199 250.699 111.337C250.699 109.475 252.205 107.965 254.063 107.965C255.921 107.965 257.428 109.475 257.428 111.337Z" fill="#7CB305"/>
<path id="Ellipse" d="M253.37 162.088C259.452 162.088 264.382 157.102 264.382 150.951C264.382 144.801 259.452 139.815 253.37 139.815C247.289 139.815 242.359 144.801 242.359 150.951C242.359 157.102 247.289 162.088 253.37 162.088Z" fill="#FAAD14"/>
<path id="Path" d="M253.37 162.088C256.544 162.09 259.556 160.672 261.598 158.214C259.989 155.125 256.821 153.192 253.369 153.192C249.916 153.192 246.748 155.125 245.139 158.214C247.182 160.672 250.195 162.09 253.37 162.088Z" fill="#253368"/>
<path id="Ellipse_2" d="M253.428 153.634C255.716 153.634 257.57 151.759 257.57 149.446C257.57 147.133 255.716 145.258 253.428 145.258C251.141 145.258 249.287 147.133 249.287 149.446C249.287 151.759 251.141 153.634 253.428 153.634Z" fill="#253368"/>
<path id="Path_2" d="M392.173 163.821C392.419 163.821 392.618 164.021 392.618 164.267C392.618 164.501 392.436 164.694 392.206 164.711L392.173 164.712H296.57C296.324 164.712 296.125 164.513 296.125 164.267C296.125 164.032 296.307 163.84 296.537 163.823L296.57 163.821H392.173Z" fill="white"/>
<path id="Path_3" d="M317.945 140.74C318.18 140.74 318.372 140.921 318.389 141.152L318.391 141.185V205.681C318.391 205.927 318.191 206.126 317.945 206.126C317.711 206.126 317.518 205.944 317.501 205.714L317.5 205.681V141.185C317.5 140.939 317.699 140.74 317.945 140.74Z" fill="white"/>
<path id="Path_4" d="M343.773 140.74C344.008 140.74 344.201 140.921 344.218 141.152L344.219 141.185V205.681C344.219 205.927 344.019 206.126 343.773 206.126C343.539 206.126 343.346 205.944 343.329 205.714L343.328 205.681V141.185C343.328 140.939 343.528 140.74 343.773 140.74Z" fill="white"/>
<path id="Path_5" d="M368.711 140.74C368.946 140.74 369.138 140.921 369.155 141.152L369.156 141.185V205.681C369.156 205.927 368.957 206.126 368.711 206.126C368.476 206.126 368.284 205.944 368.267 205.714L368.266 205.681V141.185C368.266 140.939 368.465 140.74 368.711 140.74Z" fill="white"/>
<path id="Path_6" d="M392.173 185.196C392.419 185.196 392.618 185.396 392.618 185.642C392.618 185.876 392.436 186.069 392.206 186.086L392.173 186.087H296.57C296.324 186.087 296.125 185.888 296.125 185.642C296.125 185.407 296.307 185.215 296.537 185.198L296.57 185.196H392.173Z" fill="white"/>
</g>
<g id="BM/standing/explaining">
<path id="Fill 1_2" fill-rule="evenodd" clip-rule="evenodd" d="M402.242 218.941C402.242 218.941 395.191 194.71 385.809 188.125C382.933 188.109 385.465 192.013 387.331 195.197C388.286 196.827 388.875 198.858 388.875 198.858C388.875 198.858 384.955 198.278 385.567 201.659C382.419 201.371 383.411 204.957 383.411 204.957C383.411 204.957 380.985 204.859 381.625 208.177C382.065 210.46 385.168 213.218 385.586 215.661C386.664 221.961 392.11 224.061 393.87 224.417C398.323 225.319 400.924 223.733 402.242 218.941Z" fill="#997C79"/>
<path id="Stroke 3" d="M394.539 200.957C393.881 197.978 392.613 196.652 391.402 197.716C390.428 198.572 390.172 200.798 390.902 202.856L391.062 203.312C392.262 206.787 392.313 208.14 391.705 209.564L391.577 209.848C391.332 210.378 391.21 210.718 391.143 211.16L391.047 211.926C390.906 213.092 390.879 213.958 391.027 214.862C391.349 216.829 392.484 218.264 394.665 218.961C394.889 219.033 395.129 218.909 395.201 218.684C395.273 218.459 395.149 218.219 394.924 218.148C393.062 217.552 392.14 216.386 391.869 214.724C391.747 213.98 391.758 213.244 391.865 212.276L391.906 211.931C391.925 211.773 391.96 211.495 391.97 211.41C392.013 211.041 392.095 210.778 392.284 210.354L392.398 210.105C393.221 208.325 393.184 206.736 391.705 202.57C391.08 200.809 391.295 198.946 391.964 198.358C392.444 197.936 393.171 198.7 393.704 201.127L393.741 201.299L393.764 201.373L396.915 209.062C397.004 209.28 397.253 209.384 397.471 209.295C397.67 209.213 397.775 208.996 397.722 208.793L397.703 208.738L394.567 201.084L394.539 200.957Z" fill="#7C5B4D"/>
<path id="Stroke 5" d="M385.396 201.267C385.181 201.362 385.083 201.614 385.177 201.83L385.282 202.063L385.49 202.508C385.515 202.561 385.541 202.615 385.568 202.67C385.872 203.297 386.199 203.925 386.538 204.513C386.951 205.228 387.354 205.835 387.741 206.301C388.397 207.094 389.002 207.493 389.613 207.334C391.047 206.96 391.506 205.904 391.177 204.531C391.063 204.052 390.858 203.551 390.589 203.042C390.442 202.765 390.285 202.504 390.128 202.264L390.002 202.077C389.966 202.024 389.936 201.983 389.914 201.953C389.773 201.763 389.506 201.724 389.317 201.865C389.128 202.006 389.089 202.273 389.23 202.463L389.324 202.595C389.351 202.635 389.381 202.681 389.416 202.733C389.559 202.951 389.702 203.191 389.835 203.443C390.074 203.892 390.253 204.33 390.349 204.731C390.579 205.691 390.329 206.265 389.398 206.508C389.223 206.553 388.856 206.311 388.397 205.756C388.046 205.332 387.668 204.762 387.276 204.085C386.949 203.517 386.63 202.907 386.335 202.297L386.12 201.845L385.958 201.487C385.863 201.271 385.612 201.173 385.396 201.267Z" fill="#7C5B4D"/>
<path id="Stroke 7" d="M383.431 204.725C383.205 204.791 383.075 205.028 383.141 205.254L383.182 205.386L383.203 205.45C383.252 205.602 383.311 205.77 383.378 205.951C383.57 206.468 383.796 206.985 384.055 207.47C384.853 208.964 385.792 209.87 386.935 209.829C388.096 209.786 388.666 209.033 388.73 207.924C388.753 207.53 388.713 207.117 388.631 206.71C388.591 206.513 388.551 206.36 388.523 206.269C388.453 206.043 388.214 205.917 387.99 205.987C387.765 206.057 387.639 206.296 387.709 206.521L387.733 206.606C387.751 206.675 387.773 206.768 387.795 206.879C387.864 207.219 387.898 207.563 387.879 207.874C387.838 208.587 387.563 208.951 386.904 208.975C386.193 209.001 385.464 208.298 384.807 207.067C384.568 206.619 384.357 206.136 384.177 205.652C384.135 205.539 384.096 205.432 384.062 205.331L383.96 205.015C383.894 204.788 383.657 204.659 383.431 204.725Z" fill="#7C5B4D"/>
<path id="Stroke 9" d="M381.478 207.267C381.247 207.314 381.097 207.539 381.144 207.77L381.184 207.949C381.216 208.087 381.255 208.239 381.302 208.404C381.434 208.873 381.598 209.343 381.796 209.785C382.526 211.416 383.543 212.303 384.884 211.853C385.88 211.518 386.277 210.799 386.127 209.91C386.062 209.524 385.899 209.128 385.67 208.731C385.495 208.428 385.32 208.188 385.198 208.041C385.047 207.861 384.778 207.836 384.598 207.988C384.417 208.139 384.393 208.408 384.544 208.589L384.602 208.663C384.619 208.686 384.639 208.712 384.661 208.742C384.753 208.869 384.846 209.01 384.932 209.159C385.115 209.475 385.241 209.781 385.286 210.052C385.368 210.539 385.199 210.846 384.613 211.043C383.826 211.307 383.146 210.713 382.574 209.436C382.395 209.036 382.244 208.604 382.122 208.171L382.065 207.964C382.024 207.805 381.995 207.681 381.98 207.602C381.937 207.39 381.745 207.246 381.535 207.26L381.478 207.267Z" fill="#7C5B4D"/>
<path id="Fill 11" fill-rule="evenodd" clip-rule="evenodd" d="M418.374 279.845C423.023 283.935 430.071 283.596 434.307 279.078L469.976 241.031C475.087 235.579 474.675 226.97 469.065 222.034C463.455 217.099 454.88 217.799 450.142 223.579L417.078 263.919C413.152 268.709 413.725 275.755 418.374 279.845Z" fill="#ADC6FF"/>
<path id="Fill 13" fill-rule="evenodd" clip-rule="evenodd" d="M402.124 216.548L388.441 224.648L415.969 277.455C419.197 283.202 426.601 285.023 432.12 281.426C437.507 277.914 438.932 270.638 435.27 265.348L402.124 216.548Z" fill="#ADC6FF"/>
<path id="Stroke 15" d="M402.513 216.213C402.4 216.031 402.172 215.963 401.982 216.046L401.926 216.075L388.751 224.256C388.551 224.38 388.49 224.644 388.614 224.844C388.727 225.026 388.954 225.094 389.145 225.011L389.201 224.982L402.375 216.801C402.575 216.676 402.637 216.413 402.513 216.213Z" fill="#597EF7"/>
<path id="Stroke 17" d="M405.792 222.706C405.674 222.527 405.445 222.465 405.257 222.553L405.201 222.584L392.47 230.992C392.274 231.122 392.22 231.386 392.349 231.583C392.467 231.762 392.696 231.824 392.885 231.736L392.94 231.705L405.671 223.297C405.867 223.167 405.921 222.902 405.792 222.706Z" fill="#597EF7"/>
<path id="Fill 19" fill-rule="evenodd" clip-rule="evenodd" d="M392.035 225.665C391.527 225.978 391.368 226.644 391.681 227.153C391.994 227.662 392.659 227.821 393.167 227.508C393.675 227.195 393.834 226.528 393.521 226.019C393.208 225.51 392.543 225.351 392.035 225.665Z" fill="white"/>
<path id="Fill 21" fill-rule="evenodd" clip-rule="evenodd" d="M524.372 513.157C524.372 513.157 530.186 527.742 544.228 531.401C553.42 533.795 543.589 541.925 527.451 537.77C518.252 535.401 520.552 530.753 515.379 530.443C512.382 530.262 506.442 528.361 506.28 526.071C505.997 522.07 505.924 520.949 505.896 516.29C505.729 488.686 516.526 488.355 524.372 513.157Z" fill="#597EF7"/>
<path id="Fill 23" fill-rule="evenodd" clip-rule="evenodd" d="M510.4 304.509C510.4 304.509 468.893 304.951 463.19 304.725C460.22 304.607 456.206 322.98 456.038 335.483C457.928 339.313 474.359 347.008 482.768 350.888C485.946 352.355 488.865 351.558 488.865 351.558C493.046 352.666 517.561 334.577 517.561 334.577C517.561 334.577 517.165 314.623 510.4 304.509Z" fill="#ADC6FF"/>
<path id="Fill 25" fill-rule="evenodd" clip-rule="evenodd" d="M462.36 299.478L462.129 305.244C462.129 305.244 468.749 307.916 484.799 309.041C500.242 310.124 510.617 306.226 510.617 306.226L510.478 300.139C510.478 300.139 490.671 306.389 462.36 299.478Z" fill="black"/>
<path id="Fill 27" fill-rule="evenodd" clip-rule="evenodd" d="M476.718 307.657L476.759 303.465C476.771 302.284 477.736 301.361 478.861 301.462C481.557 301.701 486.322 302.046 489.79 301.842C490.924 301.775 491.857 302.754 491.809 303.941L491.638 308.221C491.599 309.222 490.868 310.039 489.917 310.156C487.657 310.435 483.307 310.706 478.285 309.666C477.37 309.476 476.707 308.634 476.718 307.657Z" fill="#E4EBF7"/>
<path id="Fill 29" fill-rule="evenodd" clip-rule="evenodd" d="M478.47 307.153L478.493 304.187C478.499 303.352 479.24 302.701 480.107 302.775C482.188 302.952 485.865 303.208 488.54 303.072C489.415 303.028 490.137 303.723 490.103 304.562L489.981 307.591C489.953 308.299 489.392 308.874 488.659 308.955C486.917 309.146 483.562 309.328 479.685 308.579C478.978 308.442 478.465 307.844 478.47 307.153Z" fill="black"/>
<path id="Fill 31" fill-rule="evenodd" clip-rule="evenodd" d="M477.247 207.318L479.218 194.023L499.184 189.25L500.318 208.618C500.384 213.212 496.767 217.508 492.437 219.025C491.988 219.183 491.523 219.321 491.046 219.436C483.838 221.159 476.515 214.704 477.247 207.318Z" fill="#997C79"/>
<path id="Fill 33" fill-rule="evenodd" clip-rule="evenodd" d="M506.781 180.629C503.504 195.253 492.775 201.16 482.933 200.93C471.199 200.655 469.323 190.392 471.046 175.847C472.798 161.078 479.519 156.492 490.535 156.956C502.021 157.441 510.1 165.816 506.781 180.629Z" fill="#997C79"/>
<path id="Fill 35" fill-rule="evenodd" clip-rule="evenodd" d="M498.543 182.21C498.97 181.081 499.438 179.171 501.342 178.533C503.963 177.656 506.002 180.701 505.42 183.772C504.714 187.494 501.243 189.53 499.37 189.411C499.297 193.101 499.442 195.074 499.442 195.074C499.442 195.074 503.857 191.292 506.6 185.11C510.877 175.464 508.631 161.753 497.751 157.791C478.782 153.018 474.338 164.369 474.338 164.369L495.863 165.586L494.808 172.746C494.808 172.746 498.626 173.23 497.248 181.696L498.543 182.21Z" fill="#604346"/>
<path id="Stroke 37" d="M483.362 173.278C483.128 173.256 482.92 173.429 482.899 173.664C482.879 173.879 483.022 174.072 483.227 174.119L483.284 174.129L489.901 174.739L491.942 175.533C492.144 175.611 492.368 175.526 492.469 175.342L492.494 175.289C492.572 175.087 492.487 174.863 492.303 174.761L492.251 174.737L490.153 173.922L490.038 173.895L483.362 173.278Z" fill="#604346"/>
<path id="Fill 39" fill-rule="evenodd" clip-rule="evenodd" d="M491.995 193.199C489.776 189.533 490.214 186.429 480.025 185.902C475.068 185.646 473.211 187.156 471.163 191.001C472.094 197.204 476.808 201.404 483.454 201.355C497.418 201.254 499.017 187.38 499.017 187.38C499.017 187.38 497.026 187.745 496.321 188.744C494.372 191.507 493.184 192.15 491.995 193.199Z" fill="#7C5B4D"/>
<path id="Fill 41" fill-rule="evenodd" clip-rule="evenodd" d="M476.37 188.548C476.37 188.548 479.948 189.016 485.488 188.887C485.488 188.887 484.522 191.115 480.553 190.862C477.438 190.665 476.37 188.548 476.37 188.548Z" fill="white"/>
<path id="Stroke 43" d="M476.411 188.231L476.714 188.266L477.268 188.322C477.587 188.352 477.94 188.382 478.326 188.41C480.411 188.561 482.82 188.629 485.481 188.567C485.7 188.561 485.854 188.771 485.796 188.973L485.776 189.028C485.601 189.402 485.232 189.868 484.608 190.29C483.629 190.952 482.285 191.293 480.533 191.182C479.161 191.095 478.054 190.65 477.193 189.963C476.607 189.495 476.251 189.022 476.084 188.693C475.969 188.463 476.156 188.198 476.411 188.231ZM477.047 188.944L477.07 188.971C477.22 189.139 477.394 189.304 477.592 189.462C478.352 190.07 479.335 190.464 480.573 190.542C482.188 190.645 483.391 190.34 484.251 189.759L484.367 189.677C484.554 189.541 484.708 189.403 484.834 189.269L484.879 189.219L484.502 189.224C482.375 189.249 480.421 189.191 478.678 189.076L478.28 189.048C477.967 189.026 477.676 189.002 477.406 188.978L477.047 188.944Z" fill="#604346"/>
<path id="Stroke 45" d="M478.02 172.863C477.808 172.905 477.664 173.098 477.678 173.308L477.685 173.365L478.153 175.707L475.863 184.242C475.638 185.079 476.198 185.915 477.04 186.037L477.131 186.048L482.506 186.487C482.74 186.507 482.946 186.332 482.965 186.097C482.983 185.881 482.838 185.69 482.633 185.645L482.575 185.636L477.201 185.196C476.861 185.169 476.623 184.858 476.672 184.53L476.686 184.464L479.002 175.833C479.013 175.791 479.018 175.747 479.016 175.704L479.008 175.639L478.521 173.198C478.479 172.986 478.287 172.842 478.077 172.855L478.02 172.863Z" fill="#604346"/>
<path id="Stroke 47" d="M479.322 193.158C479.146 193.143 478.991 193.274 478.976 193.45C478.962 193.609 479.067 193.75 479.216 193.788L479.267 193.797L481.838 194.019C482.014 194.034 482.169 193.903 482.184 193.727C482.198 193.568 482.094 193.427 481.945 193.389L481.893 193.38L479.322 193.158Z" fill="#604346"/>
<path id="Stroke 49" d="M472.161 172.283C471.927 172.26 471.718 172.432 471.696 172.666C471.675 172.881 471.817 173.075 472.021 173.123L472.078 173.133L477.742 173.686C477.976 173.709 478.185 173.537 478.207 173.303C478.228 173.087 478.086 172.894 477.882 172.846L477.825 172.836L472.161 172.283Z" fill="#604346"/>
<path id="Stroke 51" d="M491.633 199.524C491.556 199.364 491.365 199.297 491.206 199.374C487.329 201.24 483.499 201.456 480.148 200.707C479.847 200.64 479.574 200.569 479.33 200.497L479.153 200.443C478.984 200.39 478.869 200.35 478.813 200.328C478.649 200.263 478.463 200.344 478.399 200.509C478.334 200.674 478.416 200.86 478.58 200.924L478.728 200.978C478.792 201 478.87 201.026 478.962 201.054C479.265 201.149 479.615 201.244 480.009 201.332C483.49 202.111 487.463 201.886 491.483 199.951C491.642 199.875 491.709 199.683 491.633 199.524Z" fill="#604346"/>
<path id="Stroke 53" d="M502.72 180.202C502.231 180.109 501.693 180.148 501.18 180.415C500.356 180.845 499.796 181.781 499.598 183.301C499.577 183.465 499.685 183.619 499.847 183.655C500.665 183.835 501.037 184.19 501.058 184.634C501.077 185.041 500.797 185.528 500.352 185.854C500.21 185.958 500.179 186.159 500.283 186.301C500.387 186.444 500.587 186.475 500.73 186.371C501.335 185.927 501.727 185.247 501.697 184.604C501.665 183.934 501.202 183.412 500.365 183.133L500.275 183.105L500.284 183.05C500.475 181.983 500.867 181.343 501.395 181.028L501.476 180.983C501.844 180.791 502.241 180.763 502.601 180.831L502.701 180.854C502.708 180.856 502.714 180.858 502.718 180.859C502.886 180.914 503.066 180.822 503.121 180.654C503.176 180.486 503.085 180.305 502.917 180.25L502.836 180.227C502.803 180.219 502.764 180.211 502.72 180.202Z" fill="#604346"/>
<path id="Stroke 55" d="M484.806 177.508C484.571 177.493 484.369 177.671 484.354 177.907C484.276 179.13 485.168 180.189 486.355 180.265C487.542 180.34 488.56 179.402 488.638 178.179C488.653 177.944 488.474 177.741 488.239 177.726C488.005 177.711 487.802 177.889 487.787 178.125C487.739 178.886 487.118 179.458 486.409 179.413C485.7 179.368 485.156 178.721 485.205 177.961C485.22 177.726 485.041 177.523 484.806 177.508Z" fill="#604346"/>
<path id="Stroke 57" d="M472.948 176.754C472.713 176.739 472.511 176.918 472.496 177.153C472.418 178.376 473.31 179.436 474.497 179.512C475.685 179.587 476.702 178.649 476.78 177.425C476.795 177.19 476.617 176.987 476.382 176.972C476.147 176.957 475.944 177.136 475.929 177.371C475.881 178.132 475.26 178.704 474.551 178.66C473.842 178.614 473.298 177.968 473.347 177.208C473.362 176.972 473.183 176.769 472.948 176.754Z" fill="#604346"/>
<path id="Fill 59" fill-rule="evenodd" clip-rule="evenodd" d="M508.413 425.846C515.749 425.254 521.314 418.971 521.027 411.604L518.064 335.407C517.692 325.864 509.463 318.551 499.961 319.317C490.477 320.083 483.529 328.589 484.656 338.052L493.68 413.769C494.554 421.106 501.06 426.439 508.413 425.846Z" fill="#ADC6FF"/>
<path id="Fill 61" fill-rule="evenodd" clip-rule="evenodd" d="M505.669 512.232L493.524 413.969C492.543 406.036 498.409 398.903 506.37 398.347C514.154 397.803 520.864 403.775 521.241 411.583L526.012 510.51C526.012 510.51 517.711 515.767 505.669 512.232Z" fill="#ADC6FF"/>
<path id="Fill 63" fill-rule="evenodd" clip-rule="evenodd" d="M459.461 512.219C459.461 512.219 453.248 526.639 439.111 529.908C429.856 532.049 439.461 540.445 455.706 536.737C464.967 534.624 462.796 529.915 467.975 529.746C470.977 529.648 476.966 527.911 477.191 525.628C477.584 521.636 477.688 520.517 477.844 515.861C478.769 488.272 467.986 487.642 459.461 512.219Z" fill="#597EF7"/>
<path id="Fill 65" fill-rule="evenodd" clip-rule="evenodd" d="M470.813 427.487C463.452 427.329 457.526 421.382 457.383 414.007L455.896 337.763C455.71 328.218 463.493 320.437 473.021 320.641C482.536 320.845 489.975 328.932 489.4 338.448L484.81 414.569C484.365 421.941 478.185 427.645 470.813 427.487Z" fill="#ADC6FF"/>
<path id="Fill 67" fill-rule="evenodd" clip-rule="evenodd" d="M479.22 512.274L484.828 415.867C485.276 408.151 479.24 401.604 471.526 401.439C463.876 401.275 457.592 407.457 457.62 415.123L457.961 511.819C457.961 511.819 467.408 516.513 479.22 512.274Z" fill="#ADC6FF"/>
<path id="Fill 69" fill-rule="evenodd" clip-rule="evenodd" d="M460.404 289.004C460.404 289.004 449.602 244.133 454.923 220.706C461.216 216.944 465.994 216.808 476.949 213.258C479.145 212.546 483.763 217.809 486.492 217.716C490.526 217.578 498.805 211.946 502.562 212.803C518.996 216.553 524.721 219.196 524.721 219.196L521.628 251.639C517.926 269.319 512.635 287.325 512.635 287.325C512.635 287.325 521.326 299.48 503.468 301.744C491.029 303.321 470.247 303.78 462.428 299.131C459.021 297.106 458.669 293.432 460.404 289.004Z" fill="#ADC6FF"/>
<path id="Fill 71" fill-rule="evenodd" clip-rule="evenodd" d="M477.17 208.772L472.667 214.585L478.184 225.247L487.063 216.591L477.17 208.772Z" fill="#ADC6FF"/>
<path id="Fill 73" fill-rule="evenodd" clip-rule="evenodd" d="M486.987 216.6L499.734 208.917L503.673 213.46L495.602 224.633L486.987 216.6Z" fill="#ADC6FF"/>
<path id="Fill 75" fill-rule="evenodd" clip-rule="evenodd" d="M480.079 223.219L486.855 216.497L493.445 223.522L489.464 231.01L481.93 230.82L480.079 223.219Z" fill="#253368"/>
<path id="Fill 77" fill-rule="evenodd" clip-rule="evenodd" d="M481.971 230.763L489.424 230.724L493.266 276.964L482.389 292.207L473.097 276.395L481.971 230.763Z" fill="#253368"/>
<path id="Stroke 79" d="M503.938 213.168C503.761 213.048 503.526 213.079 503.385 213.232L503.346 213.282L495.532 224.814L487.161 216.199C487.013 216.047 486.78 216.028 486.612 216.146L486.563 216.185L478.088 224.152L473.699 214.26C473.611 214.062 473.392 213.964 473.19 214.023L473.136 214.043C472.939 214.131 472.841 214.35 472.9 214.552L472.92 214.607L477.552 225.048C477.663 225.297 477.971 225.376 478.186 225.225L478.233 225.186L486.842 217.095L495.286 225.785C495.459 225.963 495.744 225.953 495.906 225.775L495.944 225.727L504.051 213.761C504.184 213.566 504.133 213.3 503.938 213.168Z" fill="#597EF7"/>
<path id="Stroke 81" d="M482.249 230.566C482.013 230.566 481.822 230.758 481.822 230.993C481.822 231.21 481.983 231.388 482.191 231.417L482.249 231.42H488.939C489.175 231.42 489.366 231.229 489.366 230.993C489.366 230.777 489.205 230.599 488.997 230.57L488.939 230.566H482.249Z" fill="#597EF7"/>
<path id="Stroke 83" d="M454.506 232.967C454.27 232.955 454.07 233.136 454.058 233.372C453.825 237.986 453.912 243.093 454.284 248.611C454.801 256.275 455.844 264.457 457.258 272.783C457.94 276.801 458.668 280.611 459.399 284.111L459.546 284.807C459.764 285.84 459.97 286.785 460.16 287.635L460.433 288.837L460.547 289.323L460.412 289.578C460.248 289.897 460.085 290.256 459.932 290.648C459.338 292.174 459.072 293.735 459.325 295.212C459.664 297.187 460.91 298.787 463.205 299.852C463.418 299.951 463.672 299.858 463.77 299.644C463.869 299.43 463.776 299.176 463.563 299.077C461.52 298.129 460.457 296.763 460.165 295.067C459.942 293.767 460.183 292.352 460.726 290.958C460.839 290.668 460.959 290.397 461.08 290.149L461.17 289.968C461.26 289.793 461.328 289.671 461.365 289.611C461.424 289.514 461.442 289.399 461.415 289.289L461.222 288.461L460.992 287.447C460.826 286.707 460.648 285.894 460.461 285.012L460.38 284.63C459.602 280.952 458.824 276.914 458.099 272.64C456.689 264.34 455.649 256.186 455.135 248.553C454.765 243.067 454.679 237.993 454.91 233.415C454.922 233.18 454.741 232.979 454.506 232.967Z" fill="#597EF7"/>
<path id="Fill 85" fill-rule="evenodd" clip-rule="evenodd" d="M472.512 297.384L460.177 258.73C459.973 258.093 459.386 257.657 458.718 257.649L424.128 257.18C423.054 257.165 422.289 258.222 422.638 259.24L435.515 296.866C435.722 297.472 436.278 297.888 436.916 297.916L470.965 299.412C472.044 299.459 472.841 298.415 472.512 297.384Z" fill="#A3B5D6"/>
<path id="Fill 87" fill-rule="evenodd" clip-rule="evenodd" d="M458.568 258.932C458.322 258.161 457.611 257.633 456.802 257.622L421.784 257.147C421.033 257.137 420.499 257.877 420.743 258.588L433.798 296.736C434.027 297.406 434.642 297.867 435.349 297.898L468.815 299.368C470.122 299.426 471.087 298.161 470.689 296.913L458.568 258.932Z" fill="#253368"/>
<path id="Fill 89" fill-rule="evenodd" clip-rule="evenodd" d="M453.826 261.282C453.435 261.719 453.575 262.485 454.141 262.995C454.706 263.504 455.482 263.563 455.873 263.127C456.265 262.691 456.125 261.924 455.559 261.415C454.993 260.905 454.217 260.846 453.826 261.282Z" fill="#4E5C93"/>
<path id="Fill 91" fill-rule="evenodd" clip-rule="evenodd" d="M454.291 261.738C454.088 261.965 454.161 262.363 454.454 262.627C454.748 262.891 455.15 262.922 455.354 262.696C455.557 262.469 455.484 262.072 455.19 261.807C454.897 261.543 454.494 261.512 454.291 261.738Z" fill="#E4EBF7"/>
<path id="Fill 93" fill-rule="evenodd" clip-rule="evenodd" d="M457.114 290.116C455.127 289.923 454.081 289.09 454.269 287.432C451.879 286.678 452.146 284.65 452.146 284.65C452.146 284.65 447.545 284.579 446.771 282.61C446.47 281.846 447.054 281.027 447.872 280.971C457.73 280.302 464.759 275.069 464.759 275.069C464.759 275.069 460.884 269.369 461.294 266.737C461.415 265.959 462.43 265.708 462.904 266.336C466.969 271.709 475.119 275.921 475.119 275.921C475.119 275.921 484.902 285.103 474.289 289.266C474.289 289.266 466.2 292.495 460.568 292.086C457.902 291.893 457.114 290.116 457.114 290.116Z" fill="#997C79"/>
<path id="Stroke 95" d="M459.501 282.84C459.386 282.635 459.127 282.561 458.921 282.676C458.225 283.066 457.409 283.385 456.497 283.637C455.408 283.938 454.238 284.131 453.06 284.236L452.702 284.265C452.24 284.299 451.845 284.315 451.537 284.319L451.31 284.32C451.075 284.316 450.882 284.505 450.878 284.741C450.876 284.957 451.034 285.138 451.241 285.169L451.299 285.174L451.426 285.174C451.842 285.173 452.43 285.149 453.135 285.086C454.361 284.977 455.581 284.776 456.724 284.46C457.697 284.191 458.576 283.848 459.337 283.421C459.543 283.306 459.616 283.046 459.501 282.84Z" fill="#7C5B4D"/>
<path id="Stroke 97" d="M460.433 285.882C460.33 285.669 460.075 285.58 459.863 285.683C459.773 285.726 459.683 285.769 459.591 285.81C458.432 286.334 457.185 286.671 455.933 286.855C455.279 286.952 454.736 286.993 454.352 287.002L454.159 287.003C453.92 287 453.726 287.189 453.723 287.425C453.72 287.641 453.878 287.821 454.086 287.853L454.153 287.857L454.365 287.856C454.784 287.846 455.364 287.802 456.058 287.7C457.383 287.505 458.704 287.148 459.942 286.589C460.04 286.544 460.138 286.499 460.234 286.452C460.446 286.349 460.535 286.094 460.433 285.882Z" fill="#7C5B4D"/>
<path id="Stroke 99" d="M462.187 289.272C462.085 289.06 461.83 288.971 461.618 289.074C461.31 289.223 460.551 289.368 459.523 289.487C458.992 289.548 458.422 289.599 457.851 289.641L457.3 289.678L457.092 289.689C456.857 289.701 456.676 289.902 456.688 290.137C456.7 290.373 456.9 290.554 457.135 290.542L457.351 290.53C457.52 290.52 457.709 290.507 457.913 290.493C458.495 290.45 459.077 290.398 459.621 290.335L460.006 290.288C460.936 290.168 461.612 290.025 461.989 289.843C462.201 289.74 462.29 289.485 462.187 289.272Z" fill="#7C5B4D"/>
<path id="Fill 101" fill-rule="evenodd" clip-rule="evenodd" d="M537.552 292.626C543.489 290.884 546.978 284.739 545.438 278.736L532.463 228.185C530.604 220.941 523.125 216.681 515.96 218.783C508.795 220.885 504.793 228.515 507.129 235.618L523.431 285.192C525.367 291.079 531.614 294.368 537.552 292.626Z" fill="#ADC6FF"/>
<path id="Stroke 103" d="M523.54 222.355C523.438 222.143 523.183 222.054 522.971 222.156C519.206 223.979 516.335 227.746 514.22 232.87C513.159 235.442 512.357 238.193 511.777 240.944C511.599 241.786 511.454 242.576 511.338 243.298L511.242 243.926C511.22 244.08 511.201 244.222 511.184 244.352L511.151 244.621C511.147 244.657 511.147 244.694 511.153 244.729L511.164 244.782L518.489 271.174C518.552 271.401 518.787 271.534 519.014 271.471C519.222 271.413 519.35 271.21 519.322 271.002L519.31 270.945L512.008 244.633L512.065 244.194C512.085 244.052 512.108 243.898 512.133 243.733C512.254 242.945 512.411 242.067 512.611 241.12C513.181 238.417 513.968 235.715 515.008 233.196C517.05 228.248 519.8 224.64 523.342 222.925C523.554 222.823 523.642 222.567 523.54 222.355Z" fill="#597EF7"/>
<path id="Fill 105" fill-rule="evenodd" clip-rule="evenodd" d="M475.02 273.19L474.788 290.341L534.248 293.38C540.823 293.727 546.323 288.438 546.246 281.844C546.171 275.405 540.8 270.303 534.378 270.568L475.02 273.19Z" fill="#ADC6FF"/>
<path id="Stroke 107" d="M530.41 270.148L474.921 272.682C474.713 272.692 474.546 272.849 474.518 273.049L474.514 273.105L474.361 290.337C474.359 290.545 474.507 290.722 474.706 290.76L474.761 290.767L515.058 293.237C515.293 293.251 515.495 293.072 515.51 292.837C515.523 292.621 515.374 292.433 515.168 292.392L515.11 292.385L475.217 289.939L475.363 273.517L530.449 271.001C530.664 270.991 530.835 270.822 530.854 270.613L530.855 270.555C530.845 270.339 530.677 270.168 530.468 270.149L530.41 270.148Z" fill="#597EF7"/>
<path id="Stroke 109" d="M482.033 273.98C481.817 273.986 481.643 274.152 481.621 274.361L481.618 274.419L482.027 289.096C482.033 289.331 482.229 289.517 482.465 289.511C482.68 289.505 482.854 289.339 482.877 289.13L482.879 289.072L482.471 274.395C482.464 274.159 482.268 273.974 482.033 273.98Z" fill="#597EF7"/>
<path id="Fill 111" fill-rule="evenodd" clip-rule="evenodd" d="M477.768 285.892C477.76 286.49 478.237 286.981 478.834 286.989C479.43 286.997 479.92 286.519 479.929 285.921C479.936 285.324 479.459 284.833 478.863 284.825C478.266 284.817 477.776 285.294 477.768 285.892Z" fill="white"/>
<path id="Stroke 113" d="M477.387 347.266C477.172 347.17 476.92 347.267 476.825 347.483C476.737 347.68 476.811 347.909 476.99 348.019L477.041 348.046L485.729 351.917L505.245 512.283C505.271 512.498 505.452 512.656 505.662 512.658L505.72 512.655C505.934 512.629 506.092 512.448 506.095 512.238L506.092 512.18L486.546 351.573C486.531 351.446 486.459 351.333 486.352 351.265L486.296 351.235L477.387 347.266Z" fill="#253368"/>
</g>
<g id="Color/Long legs chair">
<path id="Fill 1_3" fill-rule="evenodd" clip-rule="evenodd" d="M101.223 500.039H140.04V492.105H101.223V500.039Z" fill="#253368"/>
<path id="Fill 2" fill-rule="evenodd" clip-rule="evenodd" d="M130.381 411.087L140.776 539.176H149.702L139.307 411.087H130.381Z" fill="#597EF7"/>
<path id="Fill 3" fill-rule="evenodd" clip-rule="evenodd" d="M101.955 411.087L91.5601 539.176H100.486L110.881 411.087H101.955Z" fill="#597EF7"/>
<path id="Fill 4" fill-rule="evenodd" clip-rule="evenodd" d="M98.1658 419.424C93.5608 419.424 89.8281 415.692 89.8281 411.088C89.8281 406.484 93.5608 402.75 98.1658 402.75H143.912C148.517 402.75 152.25 406.484 152.25 411.088C152.25 415.692 148.517 419.424 143.912 419.424H98.1658Z" fill="#A3B5D6"/>
</g>
<g id="BD/sitting/discussing">
<path id="Fill 1_4" fill-rule="evenodd" clip-rule="evenodd" d="M190.152 451.483C190.12 451.266 196.081 505.419 196.181 509.327C196.452 519.994 195.263 521.488 201.025 524.178C202.502 524.867 204.683 523.994 207.057 526.535C213.555 533.491 222.895 537.288 223.961 533.174C224.621 529.329 209.413 517.5 207.73 509.627C205.981 501.45 214.901 437.527 209.15 433.01C203.399 428.494 191.006 406.589 190.152 451.483Z" fill="#FFC999"/>
<path id="Fill 3_2" fill-rule="evenodd" clip-rule="evenodd" d="M197.388 525.64C197.388 525.64 195.393 519.891 196.41 512.769C196.41 512.769 201.319 517.039 205.624 521.742C210.595 527.171 211.777 527.426 211.777 527.426C217.913 529.175 219.205 525.657 219.205 525.657C219.205 525.657 222.625 529.85 228.993 534.304C234.696 538.292 212.935 539.644 209.825 534.213C206.714 528.782 202.71 525.659 202.71 525.659L201.199 534.036L199.123 534.027L197.388 525.64Z" fill="#597EF7"/>
<path id="Fill 5_2" fill-rule="evenodd" clip-rule="evenodd" d="M218.053 403.106L210.49 496.256L177.541 493.665C177.541 493.665 179.879 443.163 184.736 400.745C184.736 400.745 185.763 378.461 203.304 380.059C220.846 381.656 218.053 403.106 218.053 403.106Z" fill="#A3B5D6"/>
<path id="Fill 7_2" fill-rule="evenodd" clip-rule="evenodd" d="M199.414 378.355C165.259 374.12 140.038 373.759 132.14 375.739C132.14 375.739 115.744 379.026 118.82 391.647C122.573 407.048 140.203 407.306 140.203 407.306L197.306 411.785C201.846 412.189 216.788 413.917 217.649 396.37C218.463 379.818 200.158 378.447 199.414 378.355Z" fill="#A3B5D6"/>
<path id="Fill 9_2" fill-rule="evenodd" clip-rule="evenodd" d="M180.428 300.879C180.428 300.879 153.323 335.031 149.983 340.073C140.8 353.938 158.238 360.05 163.606 352.52C166.975 347.794 171.334 337.038 176.023 328.162C182.634 315.652 187.078 306.312 187.078 306.312L180.428 300.879Z" fill="#FFC999"/>
<path id="Fill 11_2" fill-rule="evenodd" clip-rule="evenodd" d="M121.851 244.574C121.851 244.574 144.483 248.95 144.278 261.979C144.173 268.679 137.444 275.779 140.552 277.909C152.697 286.235 139.152 289.161 146.815 295.794C158.214 305.66 150.634 321.774 138.332 320.366C125.589 318.907 131.197 337.193 109.342 331.425C97.0251 328.174 93.4839 325.343 84.8048 320.722C76.1248 316.1 71.3461 292.971 82.478 281.966C89.4013 274.996 95.8152 275.87 99.8773 264.073C103.939 252.276 107.738 245.082 113.604 246.217C115.834 243.2 121.851 244.574 121.851 244.574Z" fill="#FAAD14"/>
<path id="Fill 13_2" fill-rule="evenodd" clip-rule="evenodd" d="M134.373 273.137C134.442 272.888 134.792 272.883 134.868 273.13C135.544 275.312 137.144 281.197 134.845 281.418C132.254 281.668 133.747 275.411 134.373 273.137Z" fill="white"/>
<path id="Fill 15" fill-rule="evenodd" clip-rule="evenodd" d="M111.756 290.343C112.788 281.39 113.768 274.073 113.768 274.073L127.563 281.859L126.749 292.77C126.12 296.786 122.291 299.485 118.297 298.727C114.073 297.926 111.264 294.614 111.756 290.343Z" fill="#F4B784"/>
<path id="Fill 17" fill-rule="evenodd" clip-rule="evenodd" d="M120.753 258.35C120.753 258.35 122.283 254.303 125.057 256.266C127.041 257.669 126.513 256.516 126.959 255.426C128.618 251.374 129.428 260.876 135.857 262.965C135.964 268.046 135.988 284.768 125.008 285.4C120.736 285.647 115.576 283.004 113.382 276.815C112.056 273.075 113.176 269.241 114.674 268.483C119.608 265.989 119.516 263.417 120.753 258.35Z" fill="#FFC999"/>
<path id="Stroke 19" d="M129.822 262.854C129.659 262.806 129.488 262.885 129.417 263.034L129.397 263.086L128.631 265.689L128.617 265.793L128.625 266.036C128.628 266.117 128.633 266.213 128.638 266.324L128.659 266.712C128.679 267.049 128.706 267.423 128.739 267.831C128.851 269.213 129.023 270.755 129.265 272.435L129.361 273.084L129.344 273.09C128.88 273.245 128.412 273.353 127.949 273.422L127.672 273.459C127.298 273.503 126.972 273.517 126.71 273.513L126.52 273.506C126.331 273.491 126.166 273.632 126.152 273.821C126.137 274.009 126.278 274.174 126.467 274.189L126.556 274.194C126.87 274.207 127.277 274.195 127.751 274.14C128.448 274.059 129.161 273.897 129.862 273.634C130.014 273.577 130.106 273.421 130.081 273.261C129.767 271.232 129.553 269.393 129.422 267.776L129.386 267.308C129.364 267.008 129.346 266.73 129.332 266.476L129.307 265.937L129.304 265.83L130.054 263.28C130.102 263.116 130.023 262.946 129.874 262.874L129.822 262.854Z" fill="#DD936F"/>
<path id="Stroke 21" d="M122.78 275.382C122.545 275.309 122.295 275.441 122.222 275.677C122.149 275.913 122.282 276.163 122.518 276.236C122.854 276.339 123.205 276.427 123.569 276.5C125.071 276.801 126.657 276.835 128.114 276.712L128.275 276.698L128.56 276.668C128.64 276.658 128.696 276.651 128.727 276.647C128.971 276.612 129.141 276.385 129.106 276.141C129.071 275.897 128.844 275.727 128.6 275.762L128.492 275.776C128.384 275.789 128.231 275.805 128.039 275.822C126.659 275.938 125.152 275.906 123.744 275.624C123.409 275.557 123.087 275.476 122.78 275.382Z" fill="#C44343"/>
<path id="Stroke 23" d="M135.122 262.157C133.816 261.893 131.969 262.001 129.555 262.734C129.318 262.806 129.185 263.055 129.257 263.291C129.329 263.528 129.578 263.661 129.814 263.589C132.09 262.898 133.787 262.798 134.944 263.033L135.087 263.064C135.17 263.084 135.229 263.102 135.266 263.115L135.289 263.124C135.517 263.218 135.778 263.111 135.873 262.883C135.968 262.655 135.86 262.393 135.632 262.299C135.535 262.259 135.366 262.206 135.122 262.157Z" fill="#253368"/>
<path id="Stroke 25" d="M121.889 261.784C120.934 261.638 120.099 261.62 119.409 261.759C119.167 261.807 119.01 262.043 119.059 262.285C119.108 262.527 119.344 262.683 119.585 262.635C120.156 262.52 120.894 262.536 121.754 262.667C122.418 262.768 123.13 262.934 123.859 263.146C124.195 263.244 124.518 263.346 124.824 263.45L125.123 263.555C125.357 263.638 125.525 263.702 125.614 263.738C125.843 263.83 126.103 263.719 126.195 263.49C126.287 263.261 126.176 263.001 125.947 262.909L125.701 262.814C125.648 262.794 125.589 262.773 125.524 262.749L125.423 262.713C125.017 262.568 124.574 262.423 124.109 262.288C123.344 262.066 122.595 261.891 121.889 261.784Z" fill="#253368"/>
<path id="Stroke 27" d="M125.232 278.475C125.042 278.469 124.884 278.618 124.878 278.807C124.873 278.977 124.993 279.123 125.155 279.154L125.21 279.16L126.404 279.198C126.593 279.204 126.751 279.055 126.757 278.866C126.763 278.696 126.643 278.551 126.481 278.519L126.425 278.513L125.232 278.475Z" fill="#DD936F"/>
<path id="Fill 29_2" fill-rule="evenodd" clip-rule="evenodd" d="M107.093 270.936C106.253 266.63 110.37 266.962 110.37 266.962C110.37 266.962 110.377 271.239 111.431 275.081C107.303 274.885 107.093 270.936 107.093 270.936Z" fill="#FFC999"/>
<path id="Fill 31_2" fill-rule="evenodd" clip-rule="evenodd" d="M109.368 273.983C109.437 273.734 109.787 273.729 109.863 273.976C110.539 276.158 112.139 282.043 109.84 282.264C107.248 282.514 108.742 276.257 109.368 273.983Z" fill="white"/>
<path id="Stroke 33" d="M130.871 267.349C130.625 267.33 130.41 267.513 130.39 267.759C130.294 268.996 130.974 270.104 131.995 270.184C133.016 270.263 133.86 269.275 133.957 268.038C133.976 267.792 133.792 267.577 133.546 267.558C133.3 267.539 133.085 267.722 133.066 267.968C133.004 268.764 132.521 269.329 132.065 269.293C131.608 269.257 131.219 268.624 131.281 267.829C131.301 267.583 131.117 267.368 130.871 267.349Z" fill="#253368"/>
<path id="Stroke 35" d="M121.146 266.925C120.9 266.905 120.685 267.089 120.666 267.335C120.569 268.572 121.249 269.68 122.271 269.76C123.292 269.839 124.135 268.851 124.232 267.614C124.251 267.368 124.067 267.153 123.821 267.134C123.575 267.115 123.36 267.298 123.341 267.544C123.279 268.339 122.797 268.904 122.34 268.869C121.883 268.833 121.494 268.2 121.557 267.405C121.576 267.159 121.392 266.944 121.146 266.925Z" fill="#253368"/>
<path id="Fill 37" fill-rule="evenodd" clip-rule="evenodd" d="M163.165 345.582C163.165 345.582 153.625 315.02 151.132 309.51C145.11 296.204 135.533 296.725 131.699 304.124C127.079 313.043 149.722 352.196 149.722 352.196C149.722 352.196 152.337 357.676 158.8 355.755C166.44 353.485 163.165 345.582 163.165 345.582Z" fill="#FFC999"/>
<path id="Fill 39_2" fill-rule="evenodd" clip-rule="evenodd" d="M157.167 324.777C156.059 321.959 149.998 295.542 137.921 299.317C128.528 302.252 129.834 312.409 139.129 332.104L157.167 324.777Z" fill="#597EF7"/>
<path id="Fill 41_2" fill-rule="evenodd" clip-rule="evenodd" d="M106.656 353.408C113.693 355.124 131.402 353.968 133.492 353.073C135.583 352.177 133.225 347.202 133.225 347.202C145.972 314.663 144.321 303.245 143.204 300.826C141.695 297.555 128.621 298.348 128.11 295.794C127.858 294.536 127.947 290.191 127.947 290.191L110.518 289.222C110.518 289.222 109.546 294.006 108.625 295.542C106.832 298.528 95.8218 296.213 91.2933 302.252C83.1986 313.044 98.9868 333.572 105.069 347.063C105.069 347.063 102.935 350.343 106.656 353.408Z" fill="#597EF7"/>
<path id="Fill 43" fill-rule="evenodd" clip-rule="evenodd" d="M129.3 399.923L144.167 384.38C144.167 384.38 140.96 367.046 132.723 359.496L103.342 358.466C103.342 358.466 90.7355 367.246 92.1062 388.518L114.644 400.045L129.3 399.923Z" fill="#E4EBF7"/>
<path id="Fill 45" fill-rule="evenodd" clip-rule="evenodd" d="M102.655 358.809L132.723 359.496L131.975 354.895L103.65 354.04L102.655 358.809Z" fill="#E4EBF7"/>
<path id="Stroke 47_2" d="M122.245 359.506C122.061 359.528 121.93 359.694 121.951 359.878C122.291 362.814 122.548 366.007 122.73 369.415C123.136 377.063 123.143 385.201 122.899 392.949L122.854 394.312C122.829 395.015 122.803 395.68 122.777 396.304L122.693 398.117L122.649 398.952C122.638 399.137 122.779 399.295 122.964 399.306C123.149 399.317 123.307 399.176 123.318 398.991L123.372 397.955L123.446 396.332C123.467 395.832 123.488 395.306 123.508 394.754L123.523 394.335C123.813 386.166 123.83 377.5 123.399 369.379C123.217 365.958 122.958 362.752 122.617 359.801C122.598 359.635 122.461 359.512 122.3 359.504L122.245 359.506Z" fill="#A3B5D6"/>
<path id="Stroke 49_2" d="M102.742 358.713C102.557 358.709 102.404 358.857 102.401 359.042C102.398 359.208 102.517 359.349 102.676 359.377L102.73 359.383L132.197 359.897C132.382 359.901 132.535 359.753 132.538 359.568C132.541 359.402 132.422 359.261 132.263 359.233L132.209 359.227L102.742 358.713Z" fill="#A3B5D6"/>
<path id="Fill 51" fill-rule="evenodd" clip-rule="evenodd" d="M154.864 453.39C154.828 453.172 161.673 507.651 161.834 511.587C162.273 522.331 161.098 523.855 166.946 526.477C168.445 527.148 170.629 526.235 173.061 528.759C179.716 535.668 189.188 539.35 190.198 535.187C190.803 531.303 175.295 519.618 173.477 511.711C171.588 503.498 179.588 438.944 173.722 434.48C167.858 430.018 155.03 408.136 154.864 453.39Z" fill="#FFC999"/>
<path id="Fill 53" fill-rule="evenodd" clip-rule="evenodd" d="M163.304 528.007C163.304 528.007 161.205 522.244 162.12 515.052C162.12 515.052 167.132 519.279 171.544 523.951C176.637 529.346 177.832 529.584 177.832 529.584C184.042 531.251 185.289 527.686 185.289 527.686C185.289 527.686 188.801 531.859 195.287 536.249C201.096 540.18 179.187 541.878 175.97 536.454C172.751 531.029 168.668 527.945 168.668 527.945L167.274 536.41L165.182 536.432L163.304 528.007Z" fill="#597EF7"/>
<path id="Fill 55" fill-rule="evenodd" clip-rule="evenodd" d="M182.282 397.025L191.912 490.72L158.785 494.21C158.785 494.21 151.818 443.736 148.834 400.81C148.834 400.81 145.755 378.54 163.43 376.898C181.105 375.257 182.282 397.025 182.282 397.025Z" fill="#E4EBF7"/>
<path id="Fill 57" fill-rule="evenodd" clip-rule="evenodd" d="M161.587 375.17C125.921 369.925 114.739 369.991 106.421 371.878C106.421 371.878 89.1732 374.931 92.0951 388.22C95.6604 404.438 114.116 405.125 114.116 405.125L158.586 410.128C163.331 410.66 180.256 411.777 180.256 394.469C180.256 377.11 162.363 375.285 161.587 375.17Z" fill="#E4EBF7"/>
<path id="Fill 59_2" fill-rule="evenodd" clip-rule="evenodd" d="M102.049 345.055C102.049 345.055 107.783 319.198 107.562 313.154C107.031 298.557 96.8341 297.087 91.6283 303.593C87.6028 308.625 85.0875 346.615 85.0875 346.615C85.0875 346.615 86.6208 353.113 93.3296 353.784C101.26 354.577 102.049 345.055 102.049 345.055Z" fill="#FFC999"/>
<path id="Fill 61_2" fill-rule="evenodd" clip-rule="evenodd" d="M97.4993 298.562C90.4456 300.017 87.7399 306.98 87.1001 326.74L105.718 329.758C105.76 326.732 117.962 296.381 96.016 298.847" fill="#597EF7"/>
<path id="Fill 63_2" fill-rule="evenodd" clip-rule="evenodd" d="M176.82 307.824C176.82 307.824 176.559 304.696 177.602 300.785C178.645 296.874 181.512 292.182 181.512 287.489C181.512 282.796 185.553 286.707 183.337 295.571C189.333 294.007 195.623 291.106 197.481 286.512C198.159 284.833 199.777 285.095 199.827 286.707C199.875 288.32 199.24 289.836 199.24 289.836C199.24 289.836 200.413 291.139 199.631 292.964C201.195 295.701 198.654 297.461 198.654 297.461C198.654 297.461 200.218 298.439 197.089 302.545C193.847 306.8 185.162 309.649 185.162 309.649L177.348 324.464L169.006 319.25L176.82 307.824Z" fill="#FFC999"/>
<path id="Stroke 65" d="M183.653 295.439C183.58 295.264 183.38 295.182 183.205 295.255C183.03 295.328 182.948 295.529 183.021 295.704L183.115 295.947L183.141 296.019C183.233 296.277 183.325 296.566 183.411 296.879C183.683 297.865 183.833 298.855 183.799 299.769C183.756 300.91 183.429 301.838 182.769 302.498C182.635 302.632 182.635 302.849 182.769 302.982C182.903 303.116 183.12 303.116 183.254 302.982C184.051 302.186 184.435 301.094 184.483 299.795C184.521 298.801 184.361 297.745 184.072 296.697C184.004 296.449 183.932 296.216 183.859 296L183.786 295.789C183.727 295.624 183.681 295.505 183.653 295.439Z" fill="#DD936F"/>
<path id="Stroke 67" d="M197.494 295.354C196.995 294.897 196.517 294.725 196.101 295.036C195.659 295.368 195.556 296.063 195.644 297.05C195.674 297.388 195.727 297.747 195.797 298.112C195.822 298.249 195.85 298.38 195.877 298.506L195.94 298.774L195.92 298.806C195.881 298.867 195.838 298.932 195.793 299L195.646 299.212C195.346 299.634 195.002 300.056 194.619 300.448C193.547 301.549 192.396 302.202 191.223 302.202C187.18 302.202 183.235 303.321 182.494 305.36C182.429 305.538 182.521 305.735 182.699 305.799C182.877 305.864 183.073 305.772 183.138 305.594C183.738 303.944 187.465 302.887 191.223 302.887C192.617 302.887 193.922 302.147 195.11 300.927C195.519 300.507 195.885 300.058 196.204 299.609C196.26 299.53 196.313 299.455 196.362 299.382L196.498 299.174C196.549 299.093 196.584 299.035 196.603 299.002C196.649 298.923 196.661 298.83 196.638 298.742L196.586 298.532C196.547 298.363 196.507 298.178 196.47 297.984C196.404 297.639 196.354 297.303 196.326 296.989C196.26 296.238 196.337 295.716 196.512 295.585C196.575 295.538 196.748 295.601 197.031 295.86C197.22 296.033 197.426 296.269 197.639 296.551C197.817 296.787 197.991 297.041 198.152 297.296L198.276 297.496C198.31 297.553 198.337 297.599 198.356 297.631C198.45 297.796 198.659 297.853 198.823 297.759C198.988 297.665 199.045 297.456 198.951 297.291L198.824 297.078C198.796 297.033 198.765 296.983 198.731 296.929C198.56 296.66 198.377 296.391 198.186 296.138C197.949 295.825 197.718 295.559 197.494 295.354Z" fill="#DD936F"/>
<path id="Stroke 69" d="M198.321 290.848C197.66 290.302 197.021 290.199 196.608 290.819C196.285 291.304 196.261 291.973 196.449 292.78C196.541 293.174 196.682 293.589 196.859 294.012C196.943 294.216 197.033 294.412 197.123 294.598L197.213 294.78C197.287 294.924 197.344 295.03 197.378 295.089C197.472 295.253 197.681 295.31 197.845 295.216C198.01 295.123 198.067 294.913 197.973 294.749L197.898 294.611C197.876 294.57 197.852 294.523 197.824 294.47C197.711 294.246 197.597 294.003 197.491 293.749C197.328 293.357 197.199 292.977 197.117 292.624C196.967 291.984 196.985 291.489 197.179 291.199C197.297 291.021 197.493 291.052 197.885 291.376C198.095 291.549 198.323 291.788 198.56 292.073C198.755 292.308 198.943 292.56 199.118 292.812L199.288 293.064C199.309 293.096 199.326 293.124 199.34 293.145C199.44 293.306 199.652 293.355 199.812 293.254C199.973 293.154 200.021 292.943 199.921 292.782L199.783 292.571C199.752 292.525 199.718 292.476 199.681 292.422C199.496 292.155 199.296 291.887 199.088 291.636C198.826 291.32 198.569 291.052 198.321 290.848Z" fill="#DD936F"/>
<path id="Stroke 71" d="M196.02 296.92C195.874 296.799 195.658 296.819 195.537 296.964C194.404 298.324 193.357 299.125 191.676 299.91C191.505 299.99 191.431 300.194 191.511 300.366C191.591 300.537 191.795 300.611 191.966 300.531C193.738 299.704 194.866 298.841 196.064 297.403C196.185 297.257 196.165 297.041 196.02 296.92Z" fill="#DD936F"/>
<path id="Stroke 73" d="M197.001 294.236C196.877 294.093 196.661 294.078 196.518 294.202L196.344 294.347L196.109 294.535C196.025 294.601 195.936 294.669 195.841 294.741C195.301 295.149 194.703 295.557 194.066 295.938C193.1 296.515 192.132 296.976 191.193 297.276C191.013 297.334 190.913 297.527 190.971 297.707C191.029 297.887 191.222 297.987 191.402 297.929C192.396 297.611 193.41 297.128 194.418 296.526C195.077 296.132 195.695 295.71 196.254 295.288L196.532 295.074L196.874 294.799C196.915 294.764 196.947 294.738 196.967 294.72C197.11 294.595 197.126 294.379 197.001 294.236Z" fill="#DD936F"/>
<path id="Stroke 75" d="M196.79 291.406C196.665 291.265 196.448 291.251 196.306 291.377L196.091 291.56L195.805 291.795C195.704 291.877 195.595 291.963 195.481 292.052C194.827 292.563 194.111 293.073 193.357 293.549C192.438 294.129 191.526 294.617 190.643 294.982C190.468 295.055 190.385 295.255 190.458 295.43C190.53 295.605 190.731 295.688 190.905 295.615C191.828 295.234 192.773 294.728 193.723 294.128C194.497 293.639 195.232 293.116 195.902 292.593C196.02 292.501 196.131 292.413 196.236 292.328L196.648 291.988C196.698 291.945 196.736 291.912 196.76 291.89C196.902 291.765 196.915 291.548 196.79 291.406Z" fill="#DD936F"/>
<path id="Stroke 77" d="M189.839 293.962C189.662 294.026 189.57 294.223 189.634 294.401L189.781 294.822C189.81 294.907 189.84 294.996 189.871 295.091C190.049 295.631 190.227 296.212 190.393 296.81C190.581 297.485 190.741 298.14 190.866 298.758L190.943 299.162C191.216 300.68 191.224 301.817 190.921 302.383C190.831 302.549 190.894 302.757 191.061 302.847C191.228 302.936 191.435 302.873 191.525 302.706C191.957 301.901 191.916 300.497 191.537 298.622C191.409 297.987 191.245 297.317 191.054 296.627C190.918 296.139 190.775 295.664 190.63 295.211L190.522 294.876C190.458 294.684 190.399 294.51 190.346 294.357L190.279 294.167C190.214 293.989 190.017 293.897 189.839 293.962Z" fill="#DD936F"/>
<path id="Stroke 79_2" d="M198.473 288.045C198.121 287.67 197.778 287.494 197.425 287.671C196.919 287.924 196.681 288.444 196.633 289.121C196.609 289.459 196.634 289.815 196.69 290.163C196.714 290.317 196.739 290.436 196.757 290.506C196.802 290.689 196.988 290.801 197.172 290.755C197.356 290.709 197.467 290.523 197.421 290.34L197.391 290.198C197.383 290.156 197.375 290.108 197.366 290.055C197.318 289.755 197.297 289.449 197.317 289.17C197.35 288.709 197.488 288.406 197.731 288.284C197.715 288.292 197.811 288.341 197.974 288.514C198.108 288.656 198.254 288.85 198.407 289.082C198.494 289.214 198.58 289.353 198.662 289.494L198.783 289.707C198.854 289.835 198.906 289.934 198.933 289.989C199.018 290.158 199.224 290.227 199.393 290.142C199.562 290.057 199.631 289.851 199.546 289.682L199.497 289.586C199.467 289.529 199.428 289.457 199.383 289.375C199.257 289.147 199.121 288.919 198.979 288.704C198.807 288.443 198.638 288.22 198.473 288.045Z" fill="#DD936F"/>
<path id="Fill 81" fill-rule="evenodd" clip-rule="evenodd" d="M132.671 358.473H169.624C170.66 358.473 171.578 357.803 171.893 356.815L184.483 317.296C184.972 315.761 183.826 314.194 182.215 314.194H145.261C144.225 314.194 143.308 314.864 142.993 315.851L130.402 355.371C129.913 356.906 131.059 358.473 132.671 358.473Z" fill="#C44343"/>
<path id="Fill 83" fill-rule="evenodd" clip-rule="evenodd" d="M135.056 358.473H172.009C173.045 358.473 173.963 357.803 174.277 356.815L186.868 317.296C187.357 315.761 186.212 314.194 184.6 314.194H147.647C146.61 314.194 145.693 314.864 145.378 315.851L132.788 355.371C132.299 356.906 133.445 358.473 135.056 358.473Z" fill="#FF7946"/>
<path id="Fill 85_2" fill-rule="evenodd" clip-rule="evenodd" d="M146.643 344.854C146.643 344.854 101.09 336.986 95.0428 337.028C82.7743 337.113 81.8164 352.15 92.5283 353.957C106.317 356.285 146.662 354.79 146.662 354.79L146.643 344.854Z" fill="#FFC999"/>
<path id="Fill 87_2" fill-rule="evenodd" clip-rule="evenodd" d="M153.764 355.138C153.764 355.138 142.589 355.787 140.017 351.174C137.688 346.998 142.591 343.35 142.591 343.35C142.591 343.35 146.752 340.937 151.95 339.564C155.355 338.663 161.565 335.985 162.51 337.609C163.741 339.725 156.935 341.423 156.692 343.178C156.2 346.737 167.199 345.194 169.125 345.902C172.889 347.286 167.174 354.462 153.764 355.138Z" fill="#FFC999"/>
<path id="Stroke 89" d="M169.403 347.696C169.346 347.515 169.154 347.415 168.974 347.472C168.564 347.6 168.143 347.713 167.711 347.811C165.131 348.395 162.373 348.424 159.809 348.121C159.536 348.089 159.286 348.055 159.06 348.021L158.647 347.952C158.617 347.947 158.592 347.942 158.574 347.939C158.388 347.902 158.208 348.022 158.171 348.208C158.134 348.394 158.255 348.574 158.44 348.611L158.786 348.672C159.062 348.716 159.377 348.761 159.728 348.802C162.363 349.113 165.195 349.084 167.863 348.479C168.313 348.377 168.752 348.26 169.179 348.126C169.359 348.069 169.46 347.877 169.403 347.696Z" fill="#DD936F"/>
<path id="Stroke 91" d="M168.235 350.197C168.171 350.02 167.974 349.928 167.796 349.992L167.58 350.063C167.506 350.086 167.418 350.113 167.314 350.142C166.908 350.258 166.43 350.373 165.884 350.481C163.455 350.962 160.581 351.137 157.344 350.822C157.156 350.804 156.988 350.942 156.97 351.13C156.952 351.319 157.09 351.486 157.278 351.504C160.584 351.826 163.525 351.647 166.017 351.154C166.501 351.058 166.935 350.956 167.316 350.853L167.702 350.743C167.853 350.697 167.963 350.661 168.03 350.637C168.208 350.572 168.3 350.375 168.235 350.197Z" fill="#DD936F"/>
<path id="Stroke 93" d="M163.293 352.726C160.348 353.191 157.983 353.285 156.231 353.159L155.834 353.126C155.661 353.109 155.541 353.093 155.475 353.082C155.288 353.052 155.112 353.178 155.081 353.365C155.051 353.552 155.177 353.728 155.364 353.759L155.522 353.781L155.727 353.804C155.801 353.811 155.881 353.819 155.967 353.826C157.791 353.979 160.283 353.895 163.4 353.403C163.587 353.373 163.714 353.197 163.685 353.011C163.658 352.842 163.513 352.722 163.348 352.721L163.293 352.726Z" fill="#DD936F"/>
<path id="Stroke 95_2" d="M162.832 337.493C162.767 337.315 162.571 337.223 162.393 337.287C162.215 337.352 162.123 337.548 162.187 337.726C162.302 338.044 162.305 338.216 162.205 338.384L162.143 338.477C162.084 338.578 162.152 338.551 161.849 338.772L160.298 339.872C160.11 340.005 159.927 340.124 159.67 340.279L158.482 340.979C157.606 341.507 157.173 341.842 156.839 342.292C156.284 343.038 156.34 343.867 157.076 344.759C157.866 345.716 159.816 346.178 162.623 346.311C164.065 346.379 165.606 346.351 167.095 346.264C167.331 346.251 167.551 346.236 167.753 346.221L168.266 346.18C168.455 346.163 168.593 345.995 168.576 345.807C168.558 345.619 168.391 345.48 168.203 345.498L167.896 345.523L167.498 345.552C167.358 345.562 167.21 345.571 167.055 345.58C165.588 345.666 164.07 345.693 162.655 345.626C160.048 345.503 158.221 345.07 157.605 344.322C157.062 343.665 157.029 343.184 157.389 342.701C157.685 342.302 158.138 341.974 159.141 341.385L159.93 340.923C160.215 340.752 160.418 340.623 160.619 340.484L161.92 339.57L161.965 339.537C162.343 339.258 162.573 339.052 162.729 338.834C163.008 338.444 163.029 338.038 162.832 337.493Z" fill="#DD936F"/>
<path id="Stroke 97_2" d="M102.581 302.28C102.411 302.206 102.214 302.283 102.139 302.453C102.065 302.622 102.143 302.82 102.312 302.894C103.797 303.544 105 305.302 105.921 307.833C106.348 309.005 106.685 310.263 106.942 311.522C107.014 311.875 107.075 312.207 107.126 312.514L107.19 312.911L107.225 313.157L105.385 329.721C105.366 329.887 105.472 330.038 105.627 330.081L105.681 330.091C105.846 330.11 105.997 330.004 106.04 329.849L106.051 329.795L107.895 313.19L107.895 313.112L107.852 312.813L107.825 312.634C107.765 312.258 107.69 311.839 107.598 311.388C107.336 310.099 106.99 308.81 106.551 307.603C105.573 304.916 104.277 303.022 102.581 302.28Z" fill="#253368"/>
<path id="Stroke 99_2" d="M115.949 296.885C115.764 296.885 115.614 297.035 115.614 297.22C115.614 297.386 115.735 297.524 115.895 297.55L115.949 297.555H125.509C125.694 297.555 125.844 297.405 125.844 297.22C125.844 297.053 125.723 296.915 125.564 296.889L125.509 296.885H115.949Z" fill="#253368"/>
<path id="Stroke 101" d="M124.977 298.619L119.945 298.954C119.699 298.97 119.513 299.183 119.529 299.429C119.544 299.655 119.724 299.83 119.944 299.845L120.004 299.846L125.036 299.51C125.282 299.494 125.469 299.281 125.452 299.035C125.437 298.809 125.257 298.634 125.037 298.619L124.977 298.619Z" fill="#253368"/>
<path id="Stroke 103_2" d="M139.788 307.301C139.63 307.248 139.461 307.32 139.386 307.463L139.365 307.513L138.358 310.531C138.342 310.579 138.338 310.63 138.344 310.679L138.354 310.728L141.121 320.54C141.171 320.718 141.356 320.822 141.535 320.772C141.695 320.727 141.795 320.572 141.777 320.412L141.766 320.358L139.027 310.645L140 307.725C140.053 307.567 139.981 307.397 139.839 307.322L139.788 307.301Z" fill="#253368"/>
<path id="Stroke 105" d="M94.2081 335.46C94.0221 335.425 93.8428 335.547 93.8075 335.733C93.7758 335.901 93.8716 336.063 94.0266 336.119L94.0804 336.134L108.673 338.901C108.859 338.936 109.038 338.814 109.074 338.628C109.105 338.461 109.01 338.299 108.854 338.242L108.801 338.228L94.2081 335.46Z" fill="#DD936F"/>
</g>
<g id="Monotone/Point-line triangle cube">
<path id="Union" fill-rule="evenodd" clip-rule="evenodd" d="M153.893 90.1109L173.315 29.8024C172.035 29.2283 171.014 28.1042 170.623 26.6435C169.932 24.0663 171.462 21.4173 174.039 20.7267C176.616 20.0362 179.265 21.5656 179.956 24.1428C180.42 25.8762 179.88 27.6421 178.693 28.8228L218.964 79.2578C219.44 78.9032 219.99 78.631 220.598 78.468C223.175 77.7774 225.825 79.3069 226.515 81.8841C227.206 84.4613 225.676 87.1103 223.099 87.8009C220.616 88.4663 218.065 87.0703 217.265 84.6618L157.725 94.4924C157.891 96.7593 156.432 98.8975 154.156 99.5075C151.578 100.198 148.929 98.6686 148.239 96.0914C147.548 93.5142 149.078 90.8652 151.655 90.1746C152.412 89.9718 153.175 89.9605 153.893 90.1109ZM176.54 30.0596C176.724 30.0101 176.904 29.9506 177.077 29.8817L193.542 62.1481C191.863 63.2649 191.002 65.3662 191.552 67.4217C191.672 67.8693 191.851 68.2853 192.079 68.6636L156.649 91.7852C156.15 91.1757 155.512 90.7002 154.796 90.3952L174.213 30.1038C174.956 30.2744 175.751 30.2708 176.54 30.0596ZM192.646 69.4246L157.173 92.5743C157.335 92.8812 157.467 93.2104 157.563 93.5589L217.055 83.7365C216.941 82.8402 217.084 81.9559 217.435 81.1691L199.809 69.4045C199.205 70.0763 198.407 70.5866 197.469 70.8378C195.664 71.3215 193.824 70.7161 192.646 69.4246ZM200.371 68.6407L217.905 80.3438C218.015 80.1883 218.134 80.0391 218.262 79.8971L177.959 29.4213C177.946 29.4301 177.932 29.4387 177.919 29.4473L194.379 61.7039C194.568 61.626 194.765 61.5594 194.968 61.5049C197.546 60.8144 200.195 62.3438 200.885 64.921C201.236 66.2313 201.014 67.5601 200.371 68.6407Z" fill="#597EF7"/>
</g>
<g id="Color/Potted 02">
<g id="Vector">
<path fill-rule="evenodd" clip-rule="evenodd" d="M292.988 348.246C267.271 336.081 251.943 367.984 264.877 385.747C280.66 407.423 288.745 432.365 293.248 439.88C297.046 446.219 307.45 461.674 319.978 454.55C331.508 447.995 325.224 422.265 325.224 422.265C325.224 422.265 324.714 363.252 292.988 348.246Z" fill="#5B8C00"/>
<path fill-rule="evenodd" clip-rule="evenodd" d="M370.342 449.597C379.085 437.801 382.277 420.873 372.518 416.532C363.162 412.371 347.664 422.618 340.485 442.339C333.306 462.059 329.164 476.238 336.187 478.703C347.708 482.748 358.794 465.176 370.342 449.597Z" fill="#5B8C00"/>
</g>
<g id="Vector_2">
<path fill-rule="evenodd" clip-rule="evenodd" d="M278.425 450.492C288.314 462.081 302.584 485.393 311.524 477.228C316.942 472.28 309.699 448.847 289.872 436.098C273.006 425.253 268.536 438.904 278.425 450.492Z" fill="#7CB305"/>
<path fill-rule="evenodd" clip-rule="evenodd" d="M373.052 370.073C369.292 367.543 364.561 366.966 360.245 368.348C354.22 370.278 345.079 376.023 336.031 392.513C324.218 414.043 318.069 437.645 319.284 452.596C320.079 462.373 332.124 466.588 338.863 459.459C341.957 456.185 345.232 451.138 348.436 443.482C361.329 412.671 373.383 393.364 374.821 391.425C378.656 386.252 381.398 375.689 373.052 370.073Z" fill="#7CB305"/>
</g>
<g id="Vector_3">
<path fill-rule="evenodd" clip-rule="evenodd" d="M364.406 382.363C364.278 383.884 365.408 385.221 366.929 385.348C368.45 385.476 369.787 384.346 369.914 382.825C370.042 381.304 368.912 379.967 367.391 379.839C365.87 379.712 364.533 380.842 364.406 382.363Z" fill="white"/>
<path fill-rule="evenodd" clip-rule="evenodd" d="M340.928 394.164C340.8 395.685 341.93 397.022 343.451 397.15C344.972 397.277 346.309 396.148 346.436 394.626C346.564 393.105 345.434 391.769 343.913 391.641C342.392 391.513 341.055 392.643 340.928 394.164Z" fill="white"/>
<path fill-rule="evenodd" clip-rule="evenodd" d="M344.862 425.586C344.716 427.328 346.01 428.859 347.752 429.005C349.494 429.151 351.025 427.858 351.171 426.115C351.317 424.373 350.024 422.843 348.281 422.696C346.539 422.55 345.009 423.844 344.862 425.586Z" fill="white"/>
<path fill-rule="evenodd" clip-rule="evenodd" d="M272.75 378.627C272.75 381.1 274.754 383.104 277.226 383.104C279.699 383.104 281.703 381.1 281.703 378.627C281.703 376.155 279.699 374.151 277.226 374.151C274.754 374.151 272.75 376.155 272.75 378.627Z" fill="white"/>
<path fill-rule="evenodd" clip-rule="evenodd" d="M308.788 392.298C308.788 394.77 310.792 396.774 313.264 396.774C315.737 396.774 317.741 394.77 317.741 392.298C317.741 389.825 315.737 387.821 313.264 387.821C310.792 387.821 308.788 389.825 308.788 392.298Z" fill="white"/>
<path fill-rule="evenodd" clip-rule="evenodd" d="M297.116 422.685C297.116 423.719 297.954 424.556 298.987 424.556C300.02 424.556 300.858 423.719 300.858 422.685C300.858 421.652 300.02 420.814 298.987 420.814C297.954 420.814 297.116 421.652 297.116 422.685Z" fill="white"/>
<path fill-rule="evenodd" clip-rule="evenodd" d="M283.636 446.614C283.636 448.141 284.874 449.378 286.4 449.378C287.927 449.378 289.164 448.141 289.164 446.614C289.164 445.088 287.927 443.85 286.4 443.85C284.874 443.85 283.636 445.088 283.636 446.614Z" fill="white"/>
</g>
<g id="Vector_4">
<path d="M348.198 452.745C347.94 452.499 347.532 452.509 347.286 452.766L347.169 452.894L347.079 452.993C346.917 453.174 346.729 453.39 346.518 453.642C345.919 454.356 345.253 455.21 344.537 456.202C342.495 459.028 340.456 462.401 338.553 466.314C333.124 477.48 329.868 490.744 329.868 506.055C329.868 506.411 330.157 506.7 330.513 506.7C330.869 506.7 331.157 506.411 331.157 506.055C331.157 490.946 334.366 477.874 339.712 466.877C341.581 463.033 343.582 459.724 345.582 456.956C346.238 456.047 346.85 455.259 347.403 454.593L347.506 454.47C347.663 454.283 347.806 454.117 347.933 453.972L348.095 453.791C348.155 453.725 348.197 453.68 348.219 453.656C348.465 453.398 348.455 452.99 348.198 452.745Z" fill="#CCD7EE"/>
<path d="M299.503 457.256C299.29 456.971 298.887 456.912 298.601 457.125C298.316 457.338 298.258 457.742 298.47 458.027C300.818 461.171 302.984 464.552 304.977 468.135C309.188 475.71 312.444 483.832 314.861 491.954C315.707 494.797 316.387 497.436 316.917 499.803L317.024 500.288C317.151 500.867 317.26 501.395 317.353 501.868L317.413 502.178L317.52 502.763C317.579 503.114 317.911 503.35 318.262 503.291C318.613 503.232 318.85 502.9 318.791 502.549L318.754 502.341C318.724 502.174 318.687 501.976 318.643 501.75L318.537 501.214C318.433 500.702 318.313 500.137 318.175 499.521L318.058 499.004C317.54 496.744 316.89 494.253 316.097 491.586C313.655 483.38 310.365 475.173 306.103 467.509C304.084 463.877 301.887 460.448 299.503 457.256Z" fill="#CCD7EE"/>
<path d="M288.24 376.843C287.993 377.079 287.976 377.465 288.192 377.722L288.221 377.754C288.233 377.767 288.261 377.796 288.302 377.841L288.461 378.014L288.553 378.116C288.83 378.425 289.153 378.797 289.517 379.233C290.56 380.481 291.725 381.984 292.98 383.741C296.572 388.77 300.166 394.826 303.522 401.917C309.109 413.723 313.461 427.188 316.098 442.325C319.301 460.706 319.831 480.786 317.21 502.579C317.167 502.932 317.419 503.253 317.773 503.296C318.126 503.338 318.447 503.086 318.489 502.733C321.126 480.815 320.592 460.609 317.368 442.104C314.71 426.85 310.323 413.274 304.687 401.366C301.297 394.204 297.664 388.081 294.029 382.992L293.747 382.6C292.626 381.047 291.578 379.697 290.624 378.549L290.506 378.406C290.163 377.996 289.855 377.64 289.585 377.336L289.512 377.255C289.428 377.161 289.352 377.078 289.286 377.006L289.152 376.862C288.905 376.605 288.497 376.596 288.24 376.843Z" fill="#CCD7EE"/>
<path d="M344.03 415.064C343.725 414.88 343.329 414.977 343.145 415.281L343.08 415.39C343.028 415.477 342.968 415.581 342.898 415.702L342.797 415.879C342.624 416.183 342.43 416.532 342.216 416.926L342.039 417.254C341.383 418.474 340.665 419.886 339.898 421.486L339.793 421.705C337.291 426.947 334.79 433.077 332.457 440.042C325.923 459.545 321.949 481.681 321.8 506.051C321.798 506.407 322.085 506.697 322.441 506.7C322.797 506.702 323.087 506.415 323.089 506.059C323.237 481.832 327.187 459.83 333.679 440.452C335.953 433.663 338.386 427.677 340.821 422.545L340.956 422.26C341.789 420.517 342.563 418.995 343.262 417.702L343.472 417.315C343.674 416.946 343.856 416.623 344.016 416.345L344.092 416.213L344.247 415.95C344.432 415.645 344.334 415.249 344.03 415.064Z" fill="#CCD7EE"/>
<path fill-rule="evenodd" clip-rule="evenodd" d="M294.425 538.025H350.137C353.149 538.025 355.613 535.561 355.613 532.55V491.905C355.613 488.893 353.149 486.43 350.137 486.43H294.425C291.413 486.43 288.949 488.893 288.949 491.905V532.55C288.949 535.561 291.413 538.025 294.425 538.025Z" fill="#CCD7EE"/>
</g>
</g>
</g>
<g id="Sign Up" filter="url(#filter0_d)">
<path d="M135.236 330.892C134.526 328.138 134.417 325.584 134.908 323.231C135.421 320.84 136.432 318.692 137.942 316.786C139.444 314.85 141.387 313.187 143.772 311.798C146.157 310.409 148.893 309.317 151.98 308.521C154.34 307.913 156.584 307.48 158.712 307.222C160.84 306.964 162.719 306.802 164.348 306.738C166.257 306.633 168.027 306.612 169.657 306.676L172.47 313.648C170.786 313.501 168.963 313.439 167 313.46C165.303 313.51 163.36 313.672 161.171 313.946C159.005 314.181 156.693 314.6 154.234 315.201C152.237 315.716 150.445 316.403 148.86 317.264C147.297 318.086 146.008 319.096 144.993 320.293C144.009 321.483 143.341 322.833 142.988 324.344C142.665 325.847 142.726 327.461 143.171 329.186C143.56 330.699 144.1 331.915 144.789 332.835C145.5 333.717 146.509 334.441 147.817 335.007C149.155 335.566 150.849 336.001 152.897 336.312C154.938 336.593 157.471 336.779 160.496 336.871C164.143 337.125 167.329 337.401 170.052 337.7C172.775 337.999 175.137 338.649 177.138 339.65C179.161 340.613 180.858 342.063 182.228 344.001C183.599 345.939 184.714 348.573 185.571 351.901C186.304 354.746 186.563 357.439 186.346 359.979C186.129 362.52 185.339 364.837 183.975 366.932C182.61 369.026 180.634 370.874 178.046 372.477C175.45 374.05 172.14 375.355 168.115 376.392C165.331 377.109 162.803 377.567 160.53 377.766C158.288 377.956 156.337 378.023 154.677 377.967C152.751 377.883 151.021 377.683 149.488 377.368L146.46 370.5C148.258 370.843 150.181 371.042 152.228 371.095C154.01 371.249 156.038 371.227 158.31 371.028C160.613 370.822 163.02 370.396 165.532 369.748C167.801 369.163 169.786 368.474 171.485 367.681C173.215 366.881 174.607 365.893 175.659 364.718C176.704 363.513 177.376 362.113 177.675 360.52C178.005 358.918 177.897 357.058 177.351 354.94C176.813 352.852 176.145 351.2 175.348 349.986C174.551 348.771 173.43 347.802 171.984 347.077C170.531 346.322 168.671 345.801 166.402 345.514C164.164 345.22 161.324 344.967 157.881 344.757C154.462 344.638 151.481 344.341 148.939 343.867C146.426 343.385 144.261 342.62 142.442 341.572C140.615 340.494 139.123 339.087 137.966 337.352C136.801 335.587 135.891 333.434 135.236 330.892ZM202.831 366.284L186.022 301.055L194.329 298.915L211.138 364.143L202.831 366.284ZM269.602 348.883L266.227 342.927C265.595 344.607 264.637 346.209 263.352 347.735C262.285 349.107 260.779 350.463 258.833 351.803C256.88 353.113 254.39 354.159 251.364 354.938C247.672 355.89 244.062 356.158 240.535 355.744C237 355.3 233.705 354.035 230.65 351.95C227.596 349.865 224.834 346.85 222.365 342.904C219.926 338.95 217.927 333.947 216.367 327.894C215.252 323.567 214.621 319.615 214.474 316.039C214.327 312.462 214.584 309.266 215.246 306.449C215.907 303.632 216.909 301.131 218.25 298.946C219.591 296.761 221.188 294.881 223.041 293.307C224.886 291.701 226.934 290.383 229.186 289.351C231.459 288.281 233.837 287.426 236.318 286.787C238.679 286.179 240.93 285.776 243.074 285.578C245.218 285.381 247.131 285.291 248.814 285.309C250.754 285.326 252.57 285.422 254.261 285.6L256.687 292.381C255.018 292.166 253.194 292.039 251.215 292C249.525 291.951 247.562 292.038 245.328 292.258C243.124 292.471 240.781 292.898 238.3 293.537C235.001 294.387 232.248 295.661 230.039 297.36C227.823 299.028 226.152 301.121 225.025 303.638C223.891 306.125 223.318 309.096 223.305 312.553C223.315 315.971 223.889 319.889 225.027 324.307C226.236 328.998 227.633 333.043 229.219 336.442C230.798 339.811 232.617 342.488 234.678 344.474C236.739 346.46 239.067 347.732 241.663 348.289C244.26 348.847 247.177 348.708 250.415 347.874C252.866 347.242 254.951 346.382 256.672 345.293C258.422 344.196 259.858 343.133 260.98 342.101C262.283 340.894 263.353 339.602 264.192 338.224L260.028 322.064L253.493 323.942L247.774 325.416L245.297 319.374L265.678 314.122L274.322 347.666L269.602 348.883ZM283.182 290.006L296.611 342.116L288.622 344.175L271.813 278.947L280.437 276.724L327.956 320.049L314.527 267.939L322.516 265.88L339.325 331.109L331.052 333.192L283.182 290.006ZM402.205 308.757C404.868 308.07 407.124 307.182 408.973 306.093C410.823 305.003 412.245 303.636 413.241 301.992C414.237 300.347 414.776 298.305 414.857 295.863C414.968 293.414 414.587 290.495 413.713 287.106L402.905 245.164L411.529 242.941L422.49 285.474C423.699 290.164 424.077 294.197 423.623 297.574C423.201 300.942 422.119 303.818 420.377 306.203C418.659 308.55 416.38 310.477 413.541 311.983C410.732 313.481 407.558 314.687 404.017 315.599C400.355 316.543 396.903 317.045 393.659 317.107C390.408 317.138 387.444 316.53 384.767 315.284C382.112 313.999 379.786 311.985 377.788 309.24C375.79 306.496 374.194 302.809 373.001 298.179L362.052 255.692L370.722 253.458L381.53 295.4C382.404 298.789 383.436 301.54 384.626 303.654C385.846 305.76 387.275 307.296 388.911 308.262C390.578 309.22 392.499 309.725 394.675 309.777C396.881 309.822 399.391 309.482 402.205 308.757ZM452.498 267.236C456.159 266.293 459.127 265.286 461.4 264.216C463.697 263.108 465.408 261.86 466.535 260.472C467.692 259.077 468.34 257.522 468.479 255.808C468.641 254.056 468.414 251.985 467.798 249.594C467.065 246.75 466.208 244.55 465.226 242.996C464.237 241.412 462.895 240.337 461.201 239.774C459.499 239.18 457.319 239.048 454.661 239.378C451.995 239.677 448.619 240.354 444.534 241.406L437.862 243.126L444.599 269.272L452.498 267.236ZM476.582 247.427C477.533 251.119 477.78 254.331 477.322 257.063C476.857 259.765 475.669 262.168 473.759 264.274C471.88 266.372 469.255 268.21 465.886 269.788C462.517 271.367 458.381 272.787 453.479 274.051L449.167 275.162C448.259 275.396 447.302 275.626 446.296 275.854L452.987 301.818L444.589 303.982L427.78 238.754L441.806 235.139C447.676 233.626 452.604 232.711 456.588 232.394C460.565 232.047 463.872 232.357 466.509 233.323C469.146 234.289 471.231 235.93 472.764 238.246C474.319 240.524 475.591 243.584 476.582 247.427Z" fill="white"/>
<path d="M134.908 323.231L134.419 323.126L134.418 323.129L134.908 323.231ZM137.942 316.786L138.334 317.096L138.337 317.092L137.942 316.786ZM164.348 306.738L164.368 307.237L164.375 307.237L164.348 306.738ZM169.657 306.676L170.121 306.489L170 306.189L169.677 306.177L169.657 306.676ZM172.47 313.648L172.427 314.146L173.239 314.217L172.934 313.461L172.47 313.648ZM167 313.46L166.995 312.96L166.985 312.961L167 313.46ZM161.171 313.946L161.225 314.443L161.233 314.442L161.171 313.946ZM154.234 315.201L154.115 314.716L154.109 314.717L154.234 315.201ZM148.86 317.264L149.093 317.706L149.098 317.703L148.86 317.264ZM144.993 320.293L144.612 319.97L144.608 319.975L144.993 320.293ZM142.988 324.344L142.501 324.23L142.499 324.239L142.988 324.344ZM144.789 332.835L144.388 333.135L144.394 333.142L144.399 333.149L144.789 332.835ZM147.817 335.007L147.618 335.466L147.625 335.469L147.817 335.007ZM152.897 336.312L152.822 336.806L152.829 336.807L152.897 336.312ZM160.496 336.871L160.531 336.372L160.521 336.372L160.511 336.371L160.496 336.871ZM177.138 339.65L176.914 340.097L176.923 340.101L177.138 339.65ZM178.046 372.477L178.305 372.905L178.309 372.902L178.046 372.477ZM160.53 377.766L160.573 378.264L160.574 378.264L160.53 377.766ZM154.677 377.967L154.655 378.467L154.66 378.467L154.677 377.967ZM149.488 377.368L149.031 377.57L149.135 377.806L149.387 377.858L149.488 377.368ZM146.46 370.5L146.553 370.009L145.618 369.831L146.002 370.702L146.46 370.5ZM152.228 371.095L152.271 370.597L152.256 370.596L152.241 370.595L152.228 371.095ZM158.31 371.028L158.354 371.526L158.355 371.526L158.31 371.028ZM171.485 367.681L171.275 367.228L171.274 367.228L171.485 367.681ZM175.659 364.718L176.032 365.052L176.037 365.046L175.659 364.718ZM177.675 360.52L177.185 360.419L177.184 360.427L177.675 360.52ZM171.984 347.077L171.754 347.521L171.76 347.524L171.984 347.077ZM166.402 345.514L166.337 346.01L166.339 346.01L166.402 345.514ZM157.881 344.757L157.912 344.258L157.899 344.258L157.881 344.757ZM148.939 343.867L148.844 344.358L148.847 344.359L148.939 343.867ZM142.442 341.572L142.187 342.003L142.192 342.005L142.442 341.572ZM137.966 337.352L137.548 337.628L137.55 337.63L137.966 337.352ZM135.72 330.767C135.026 328.074 134.924 325.599 135.397 323.333L134.418 323.129C133.909 325.57 134.026 328.202 134.752 331.016L135.72 330.767ZM135.396 323.336C135.894 321.02 136.872 318.941 138.334 317.096L137.55 316.475C135.992 318.442 134.948 320.661 134.419 323.126L135.396 323.336ZM138.337 317.092C139.795 315.213 141.687 313.591 144.024 312.23L143.521 311.366C141.087 312.783 139.093 314.487 137.547 316.479L138.337 317.092ZM144.024 312.23C146.364 310.867 149.056 309.791 152.105 309.005L151.855 308.037C148.731 308.842 145.951 309.95 143.521 311.366L144.024 312.23ZM152.105 309.005C154.447 308.402 156.669 307.973 158.773 307.718L158.652 306.725C156.5 306.986 154.234 307.424 151.855 308.037L152.105 309.005ZM158.773 307.718C160.891 307.461 162.756 307.301 164.368 307.237L164.328 306.238C162.682 306.304 160.79 306.466 158.652 306.725L158.773 307.718ZM164.375 307.237C166.272 307.133 168.025 307.113 169.637 307.176L169.677 306.177C168.028 306.112 166.243 306.133 164.321 306.238L164.375 307.237ZM169.193 306.864L172.006 313.835L172.934 313.461L170.121 306.489L169.193 306.864ZM172.514 313.15C170.811 313.001 168.971 312.938 166.995 312.96L167.006 313.96C168.955 313.939 170.762 314.001 172.427 314.146L172.514 313.15ZM166.985 312.961C165.268 313.011 163.309 313.175 161.109 313.45L161.233 314.442C163.41 314.17 165.337 314.01 167.015 313.96L166.985 312.961ZM161.117 313.449C158.926 313.687 156.592 314.11 154.115 314.716L154.353 315.687C156.794 315.09 159.084 314.676 161.225 314.443L161.117 313.449ZM154.109 314.717C152.078 315.241 150.247 315.942 148.621 316.824L149.098 317.703C150.643 316.865 152.395 316.191 154.359 315.685L154.109 314.717ZM148.627 316.821C147.014 317.67 145.673 318.718 144.612 319.97L145.375 320.617C146.343 319.474 147.579 318.503 149.093 317.706L148.627 316.821ZM144.608 319.975C143.574 321.224 142.871 322.644 142.501 324.23L143.475 324.458C143.81 323.022 144.444 321.742 145.379 320.612L144.608 319.975ZM142.499 324.239C142.158 325.829 142.226 327.522 142.686 329.311L143.655 329.061C143.227 327.399 143.173 325.865 143.477 324.449L142.499 324.239ZM142.686 329.311C143.087 330.865 143.649 332.148 144.388 333.135L145.189 332.535C144.551 331.683 144.034 330.532 143.655 329.061L142.686 329.311ZM144.399 333.149C145.173 334.108 146.255 334.875 147.618 335.466L148.016 334.548C146.764 334.006 145.827 333.325 145.178 332.521L144.399 333.149ZM147.625 335.469C149.013 336.048 150.749 336.492 152.822 336.806L152.972 335.818C150.948 335.51 149.298 335.084 148.01 334.546L147.625 335.469ZM152.829 336.807C154.894 337.091 157.446 337.279 160.481 337.371L160.511 336.371C157.497 336.28 154.983 336.094 152.965 335.817L152.829 336.807ZM160.461 337.37C164.104 337.624 167.283 337.899 169.997 338.197L170.107 337.203C167.375 336.903 164.183 336.627 160.531 336.372L160.461 337.37ZM169.997 338.197C172.675 338.491 174.977 339.127 176.914 340.097L177.361 339.203C175.297 338.17 172.876 337.507 170.107 337.203L169.997 338.197ZM176.923 340.101C178.864 341.025 180.496 342.418 181.82 344.29L182.637 343.713C181.22 341.709 179.458 340.2 177.353 339.198L176.923 340.101ZM181.82 344.29C183.144 346.162 184.238 348.732 185.087 352.026L186.056 351.777C185.189 348.413 184.054 345.717 182.637 343.713L181.82 344.29ZM185.087 352.026C185.808 354.824 186.059 357.46 185.848 359.937L186.844 360.022C187.066 357.417 186.801 354.668 186.056 351.777L185.087 352.026ZM185.848 359.937C185.638 362.397 184.874 364.635 183.556 366.659L184.394 367.205C185.804 365.04 186.621 362.643 186.844 360.022L185.848 359.937ZM183.556 366.659C182.239 368.679 180.322 370.48 177.783 372.052L178.309 372.902C180.947 371.269 182.982 369.372 184.394 367.205L183.556 366.659ZM177.787 372.05C175.245 373.589 171.984 374.879 167.99 375.908L168.24 376.876C172.296 375.831 175.655 374.51 178.305 372.905L177.787 372.05ZM167.99 375.908C165.226 376.62 162.726 377.072 160.487 377.267L160.574 378.264C162.88 378.062 165.436 377.599 168.24 376.876L167.99 375.908ZM160.488 377.267C158.259 377.457 156.329 377.523 154.694 377.467L154.66 378.467C156.345 378.524 158.317 378.455 160.573 378.264L160.488 377.267ZM154.699 377.468C152.794 377.384 151.091 377.187 149.589 376.878L149.387 377.858C150.952 378.179 152.708 378.381 154.655 378.467L154.699 377.468ZM149.946 377.166L146.917 370.298L146.002 370.702L149.031 377.57L149.946 377.166ZM146.366 370.991C148.194 371.34 150.144 371.541 152.215 371.595L152.241 370.595C150.218 370.543 148.323 370.347 146.553 370.009L146.366 370.991ZM152.185 371.593C154.003 371.75 156.06 371.727 158.354 371.526L158.267 370.53C156.016 370.727 154.018 370.748 152.271 370.597L152.185 371.593ZM158.355 371.526C160.687 371.318 163.122 370.886 165.656 370.232L165.407 369.264C162.918 369.905 160.538 370.327 158.266 370.53L158.355 371.526ZM165.656 370.232C167.949 369.642 169.964 368.943 171.697 368.135L171.274 367.228C169.608 368.006 167.654 368.685 165.407 369.264L165.656 370.232ZM171.696 368.135C173.475 367.312 174.925 366.287 176.032 365.052L175.287 364.384C174.288 365.499 172.956 366.45 171.275 367.228L171.696 368.135ZM176.037 365.046C177.141 363.772 177.851 362.291 178.167 360.612L177.184 360.427C176.901 361.936 176.267 363.253 175.281 364.39L176.037 365.046ZM178.165 360.62C178.514 358.923 178.394 356.983 177.835 354.815L176.867 355.064C177.4 357.133 177.495 358.913 177.186 360.419L178.165 360.62ZM177.835 354.815C177.289 352.697 176.604 350.988 175.766 349.711L174.93 350.26C175.686 351.412 176.336 353.006 176.867 355.064L177.835 354.815ZM175.766 349.711C174.915 348.415 173.723 347.39 172.209 346.63L171.76 347.524C173.136 348.214 174.187 349.127 174.93 350.26L175.766 349.711ZM172.215 346.633C170.693 345.843 168.77 345.31 166.465 345.018L166.339 346.01C168.571 346.292 170.369 346.801 171.754 347.521L172.215 346.633ZM166.467 345.019C164.214 344.722 161.361 344.469 157.912 344.258L157.851 345.256C161.287 345.466 164.115 345.718 166.337 346.01L166.467 345.019ZM157.899 344.258C154.497 344.139 151.542 343.844 149.03 343.376L148.847 344.359C151.42 344.839 154.427 345.137 157.864 345.257L157.899 344.258ZM149.033 343.376C146.564 342.902 144.453 342.154 142.691 341.139L142.192 342.005C144.069 343.086 146.289 343.868 148.844 344.358L149.033 343.376ZM142.696 341.141C140.933 340.101 139.496 338.746 138.382 337.075L137.55 337.63C138.749 339.428 140.297 340.887 142.187 342.003L142.696 341.141ZM138.383 337.077C137.255 335.368 136.364 333.268 135.72 330.767L134.752 331.016C135.417 333.6 136.347 335.807 137.548 337.628L138.383 337.077ZM202.831 366.284L202.347 366.408L202.472 366.893L202.956 366.768L202.831 366.284ZM186.022 301.055L185.897 300.571L185.413 300.696L185.538 301.18L186.022 301.055ZM194.329 298.915L194.813 298.79L194.688 298.306L194.204 298.43L194.329 298.915ZM211.138 364.143L211.263 364.627L211.747 364.502L211.622 364.018L211.138 364.143ZM203.316 366.159L186.506 300.931L185.538 301.18L202.347 366.408L203.316 366.159ZM186.147 301.539L194.453 299.399L194.204 298.43L185.897 300.571L186.147 301.539ZM193.844 299.039L210.654 364.268L211.622 364.018L194.813 298.79L193.844 299.039ZM211.013 363.659L202.707 365.799L202.956 366.768L211.263 364.627L211.013 363.659ZM269.602 348.883L269.167 349.13L269.355 349.463L269.726 349.367L269.602 348.883ZM266.227 342.927L266.662 342.681L266.136 341.751L265.759 342.751L266.227 342.927ZM263.352 347.735L262.969 347.412L262.963 347.42L262.957 347.428L263.352 347.735ZM258.833 351.803L259.112 352.219L259.117 352.215L258.833 351.803ZM240.535 355.744L240.473 356.24L240.477 356.241L240.535 355.744ZM222.365 342.904L221.939 343.166L221.941 343.169L222.365 342.904ZM223.041 293.307L223.364 293.688L223.369 293.684L223.041 293.307ZM229.186 289.351L229.394 289.806L229.398 289.803L229.186 289.351ZM248.814 285.309L248.808 285.809L248.809 285.809L248.814 285.309ZM254.261 285.6L254.732 285.431L254.626 285.135L254.314 285.102L254.261 285.6ZM256.687 292.381L256.623 292.877L257.432 292.981L257.157 292.212L256.687 292.381ZM251.215 292L251.201 292.5L251.206 292.5L251.215 292ZM245.328 292.258L245.376 292.756L245.377 292.756L245.328 292.258ZM230.039 297.36L230.34 297.76L230.344 297.756L230.039 297.36ZM225.025 303.638L225.48 303.846L225.482 303.842L225.025 303.638ZM223.305 312.553L222.805 312.551L222.805 312.554L223.305 312.553ZM229.219 336.442L228.766 336.653L228.767 336.654L229.219 336.442ZM256.672 345.293L256.406 344.869L256.404 344.871L256.672 345.293ZM260.98 342.101L261.319 342.469L261.32 342.468L260.98 342.101ZM264.192 338.224L264.619 338.484L264.729 338.303L264.677 338.099L264.192 338.224ZM260.028 322.064L260.512 321.939L260.384 321.442L259.89 321.584L260.028 322.064ZM253.493 323.942L253.618 324.426L253.631 324.423L253.493 323.942ZM247.774 325.416L247.311 325.606L247.476 326.009L247.898 325.9L247.774 325.416ZM245.297 319.374L245.172 318.89L244.617 319.033L244.834 319.564L245.297 319.374ZM265.678 314.122L266.162 313.997L266.037 313.513L265.553 313.638L265.678 314.122ZM274.322 347.666L274.447 348.151L274.931 348.026L274.807 347.542L274.322 347.666ZM270.037 348.637L266.662 342.681L265.792 343.174L269.167 349.13L270.037 348.637ZM265.759 342.751C265.149 344.372 264.222 345.926 262.969 347.412L263.734 348.057C265.052 346.493 266.041 344.842 266.695 343.103L265.759 342.751ZM262.957 347.428C261.931 348.748 260.468 350.07 258.55 351.392L259.117 352.215C261.091 350.855 262.64 349.465 263.746 348.041L262.957 347.428ZM258.555 351.388C256.661 352.658 254.227 353.684 251.239 354.454L251.489 355.423C254.553 354.633 257.099 353.569 259.112 352.219L258.555 351.388ZM251.239 354.454C247.603 355.391 244.055 355.654 240.593 355.248L240.477 356.241C244.07 356.663 247.741 356.388 251.489 355.423L251.239 354.454ZM240.597 355.248C237.144 354.814 233.924 353.579 230.932 351.537L230.369 352.363C233.486 354.491 236.856 355.786 240.473 356.24L240.597 355.248ZM230.932 351.537C227.948 349.5 225.231 346.541 222.789 342.638L221.941 343.169C224.438 347.159 227.244 350.231 230.369 352.363L230.932 351.537ZM222.791 342.641C220.385 338.742 218.403 333.789 216.851 327.77L215.883 328.019C217.451 334.104 219.467 339.158 221.939 343.166L222.791 342.641ZM216.851 327.77C215.743 323.468 215.119 319.552 214.973 316.018L213.974 316.059C214.123 319.678 214.761 323.666 215.883 328.019L216.851 327.77ZM214.973 316.018C214.828 312.477 215.083 309.327 215.732 306.563L214.759 306.334C214.085 309.204 213.826 312.448 213.974 316.059L214.973 316.018ZM215.732 306.563C216.383 303.792 217.366 301.342 218.676 299.208L217.823 298.685C216.451 300.921 215.431 303.472 214.759 306.334L215.732 306.563ZM218.676 299.208C219.991 297.065 221.554 295.226 223.364 293.688L222.717 292.925C220.821 294.536 219.19 296.457 217.823 298.685L218.676 299.208ZM223.369 293.684C225.178 292.11 227.186 290.818 229.394 289.806L228.977 288.897C226.683 289.948 224.594 291.292 222.713 292.929L223.369 293.684ZM229.398 289.803C231.643 288.747 233.991 287.903 236.443 287.271L236.193 286.303C233.682 286.95 231.275 287.815 228.973 288.899L229.398 289.803ZM236.443 287.271C238.781 286.669 241.006 286.271 243.12 286.076L243.028 285.08C240.855 285.281 238.576 285.689 236.193 286.303L236.443 287.271ZM243.12 286.076C245.251 285.88 247.146 285.791 248.808 285.809L248.819 284.809C247.115 284.791 245.184 284.882 243.028 285.08L243.12 286.076ZM248.809 285.809C250.736 285.826 252.536 285.922 254.209 286.097L254.314 285.102C252.604 284.923 250.772 284.826 248.818 284.809L248.809 285.809ZM253.791 285.768L256.216 292.549L257.157 292.212L254.732 285.431L253.791 285.768ZM256.751 291.885C255.061 291.667 253.219 291.539 251.225 291.5L251.206 292.5C253.169 292.538 254.974 292.664 256.623 292.877L256.751 291.885ZM251.23 291.5C249.512 291.451 247.528 291.539 245.279 291.761L245.377 292.756C247.597 292.537 249.537 292.452 251.201 292.5L251.23 291.5ZM245.28 291.761C243.046 291.977 240.678 292.408 238.175 293.053L238.425 294.021C240.885 293.387 243.202 292.966 245.376 292.756L245.28 291.761ZM238.175 293.053C234.825 293.916 232.007 295.216 229.734 296.964L230.344 297.756C232.489 296.107 235.177 294.858 238.425 294.021L238.175 293.053ZM229.739 296.961C227.455 298.68 225.73 300.839 224.569 303.434L225.482 303.842C226.573 301.403 228.191 299.377 230.34 297.76L229.739 296.961ZM224.571 303.431C223.4 305.997 222.818 309.042 222.805 312.551L223.805 312.554C223.818 309.151 224.382 306.253 225.48 303.846L224.571 303.431ZM222.805 312.554C222.815 316.025 223.397 319.986 224.543 324.432L225.511 324.182C224.38 319.792 223.814 315.917 223.805 312.551L222.805 312.554ZM224.543 324.432C225.757 329.144 227.164 333.219 228.766 336.653L229.672 336.23C228.103 332.866 226.715 328.851 225.511 324.182L224.543 324.432ZM228.767 336.654C230.363 340.063 232.215 342.795 234.331 344.834L235.025 344.114C233.019 342.181 231.232 339.559 229.672 336.23L228.767 336.654ZM234.331 344.834C236.453 346.88 238.864 348.2 241.558 348.778L241.768 347.801C239.27 347.264 237.024 346.041 235.025 344.114L234.331 344.834ZM241.558 348.778C244.248 349.355 247.245 349.207 250.539 348.358L250.29 347.389C247.108 348.209 244.272 348.338 241.768 347.801L241.558 348.778ZM250.539 348.358C253.029 347.716 255.166 346.838 256.939 345.715L256.404 344.871C254.737 345.926 252.702 346.768 250.29 347.389L250.539 348.358ZM256.937 345.717C258.705 344.609 260.168 343.527 261.319 342.469L260.642 341.733C259.549 342.738 258.139 343.784 256.406 344.869L256.937 345.717ZM261.32 342.468C262.653 341.233 263.754 339.905 264.619 338.484L263.765 337.964C262.953 339.299 261.912 340.556 260.64 341.734L261.32 342.468ZM264.677 338.099L260.512 321.939L259.544 322.189L263.708 338.349L264.677 338.099ZM259.89 321.584L253.355 323.461L253.631 324.423L260.166 322.545L259.89 321.584ZM253.368 323.458L247.649 324.932L247.898 325.9L253.618 324.426L253.368 323.458ZM248.236 325.226L245.76 319.184L244.834 319.564L247.311 325.606L248.236 325.226ZM245.422 319.858L265.803 314.606L265.553 313.638L245.172 318.89L245.422 319.858ZM265.194 314.247L273.838 347.791L274.807 347.542L266.162 313.997L265.194 314.247ZM274.198 347.182L269.477 348.399L269.726 349.367L274.447 348.151L274.198 347.182ZM283.182 290.006L283.517 289.635L282.284 288.522L282.698 290.131L283.182 290.006ZM296.611 342.116L296.736 342.6L297.22 342.476L297.095 341.991L296.611 342.116ZM288.622 344.175L288.138 344.3L288.263 344.784L288.747 344.659L288.622 344.175ZM271.813 278.947L271.688 278.463L271.204 278.587L271.329 279.072L271.813 278.947ZM280.437 276.724L280.774 276.355L280.574 276.173L280.312 276.24L280.437 276.724ZM327.956 320.049L327.619 320.419L328.858 321.549L328.44 319.924L327.956 320.049ZM314.527 267.939L314.402 267.455L313.918 267.58L314.042 268.064L314.527 267.939ZM322.516 265.88L323 265.756L322.875 265.271L322.391 265.396L322.516 265.88ZM339.325 331.109L339.447 331.594L339.935 331.471L339.809 330.984L339.325 331.109ZM331.052 333.192L330.717 333.564L330.915 333.742L331.174 333.677L331.052 333.192ZM282.698 290.131L296.127 342.241L297.095 341.991L283.667 289.881L282.698 290.131ZM296.487 341.632L288.498 343.691L288.747 344.659L296.736 342.6L296.487 341.632ZM289.106 344.05L272.297 278.822L271.329 279.072L288.138 344.3L289.106 344.05ZM271.938 279.431L280.562 277.208L280.312 276.24L271.688 278.463L271.938 279.431ZM280.1 277.094L327.619 320.419L328.292 319.68L280.774 276.355L280.1 277.094ZM328.44 319.924L315.011 267.814L314.042 268.064L327.471 320.174L328.44 319.924ZM314.651 268.423L322.64 266.365L322.391 265.396L314.402 267.455L314.651 268.423ZM322.031 266.005L338.841 331.233L339.809 330.984L323 265.756L322.031 266.005ZM339.203 330.624L330.93 332.707L331.174 333.677L339.447 331.594L339.203 330.624ZM331.387 332.821L283.517 289.635L282.847 290.377L330.717 333.564L331.387 332.821ZM414.857 295.863L414.357 295.841L414.357 295.847L414.857 295.863ZM402.905 245.164L402.78 244.68L402.296 244.804L402.421 245.289L402.905 245.164ZM411.529 242.941L412.013 242.817L411.889 242.332L411.404 242.457L411.529 242.941ZM423.623 297.574L423.128 297.507L423.127 297.511L423.623 297.574ZM420.377 306.203L420.781 306.499L420.781 306.498L420.377 306.203ZM413.541 311.983L413.307 311.541L413.306 311.542L413.541 311.983ZM393.659 317.107L393.664 317.607L393.669 317.606L393.659 317.107ZM384.767 315.284L384.549 315.734L384.556 315.737L384.767 315.284ZM362.052 255.692L361.927 255.208L361.443 255.332L361.568 255.817L362.052 255.692ZM370.722 253.458L371.206 253.333L371.081 252.849L370.597 252.973L370.722 253.458ZM384.626 303.654L384.19 303.899L384.193 303.905L384.626 303.654ZM388.911 308.262L388.657 308.692L388.662 308.695L388.911 308.262ZM394.675 309.777L394.663 310.277L394.665 310.277L394.675 309.777ZM402.33 309.241C405.026 308.546 407.328 307.642 409.227 306.523L408.72 305.662C406.92 306.722 404.71 307.595 402.081 308.272L402.33 309.241ZM409.227 306.523C411.139 305.397 412.625 303.974 413.669 302.251L412.814 301.733C411.865 303.298 410.506 304.609 408.72 305.662L409.227 306.523ZM413.669 302.251C414.72 300.516 415.274 298.384 415.357 295.88L414.357 295.847C414.278 298.225 413.755 300.179 412.814 301.733L413.669 302.251ZM415.356 295.886C415.47 293.371 415.079 290.4 414.198 286.981L413.229 287.231C414.095 290.591 414.465 293.458 414.357 295.841L415.356 295.886ZM414.198 286.981L403.389 245.039L402.421 245.289L413.229 287.231L414.198 286.981ZM403.03 245.648L411.654 243.425L411.404 242.457L402.78 244.68L403.03 245.648ZM411.045 243.066L422.006 285.598L422.974 285.349L412.013 242.817L411.045 243.066ZM422.006 285.598C423.205 290.251 423.57 294.216 423.128 297.507L424.119 297.64C424.583 294.179 424.193 290.077 422.974 285.349L422.006 285.598ZM423.127 297.511C422.714 300.808 421.658 303.602 419.974 305.909L420.781 306.498C422.58 304.035 423.688 301.075 424.12 297.636L423.127 297.511ZM419.974 305.908C418.304 308.188 416.086 310.067 413.307 311.541L413.775 312.425C416.674 310.887 419.013 308.913 420.781 306.499L419.974 305.908ZM413.306 311.542C410.537 313.019 407.4 314.211 403.892 315.115L404.142 316.083C407.715 315.162 410.928 313.944 413.776 312.424L413.306 311.542ZM403.892 315.115C400.262 316.05 396.849 316.546 393.65 316.607L393.669 317.606C396.957 317.544 400.449 317.035 404.142 316.083L403.892 315.115ZM393.655 316.607C390.47 316.637 387.581 316.042 384.978 314.83L384.556 315.737C387.307 317.018 390.346 317.638 393.664 317.607L393.655 316.607ZM384.985 314.834C382.415 313.59 380.149 311.634 378.192 308.946L377.384 309.535C379.423 312.335 381.81 314.408 384.549 315.734L384.985 314.834ZM378.192 308.946C376.243 306.269 374.669 302.646 373.485 298.054L372.517 298.303C373.72 302.971 375.337 306.723 377.384 309.535L378.192 308.946ZM373.485 298.054L362.536 255.567L361.568 255.817L372.517 298.303L373.485 298.054ZM362.177 256.176L370.847 253.942L370.597 252.973L361.927 255.208L362.177 256.176ZM370.238 253.582L381.046 295.524L382.015 295.275L371.206 253.333L370.238 253.582ZM381.046 295.524C381.926 298.939 382.972 301.735 384.19 303.899L385.061 303.409C383.9 301.346 382.882 298.639 382.015 295.275L381.046 295.524ZM384.193 303.905C385.445 306.064 386.929 307.672 388.657 308.692L389.165 307.831C387.621 306.919 386.248 305.455 385.058 303.403L384.193 303.905ZM388.662 308.695C390.41 309.7 392.415 310.223 394.663 310.277L394.687 309.278C392.584 309.227 390.746 308.739 389.16 307.828L388.662 308.695ZM394.665 310.277C396.928 310.323 399.485 309.974 402.33 309.241L402.081 308.272C399.297 308.99 396.834 309.321 394.685 309.278L394.665 310.277ZM461.4 264.216L461.613 264.668L461.618 264.666L461.4 264.216ZM466.535 260.472L466.15 260.153L466.147 260.157L466.535 260.472ZM468.479 255.808L467.982 255.762L467.981 255.768L468.479 255.808ZM465.226 242.996L464.802 243.261L464.803 243.263L465.226 242.996ZM461.201 239.774L461.036 240.246L461.043 240.248L461.201 239.774ZM454.661 239.378L454.717 239.874L454.722 239.874L454.661 239.378ZM437.862 243.126L437.737 242.642L437.253 242.767L437.377 243.251L437.862 243.126ZM444.599 269.272L444.115 269.396L444.24 269.881L444.724 269.756L444.599 269.272ZM477.322 257.063L477.815 257.148L477.816 257.146L477.322 257.063ZM473.759 264.274L473.389 263.938L473.387 263.941L473.759 264.274ZM446.296 275.854L446.185 275.366L445.683 275.479L445.811 275.978L446.296 275.854ZM452.987 301.818L453.111 302.302L453.596 302.177L453.471 301.693L452.987 301.818ZM444.589 303.982L444.105 304.107L444.23 304.591L444.714 304.466L444.589 303.982ZM427.78 238.754L427.655 238.269L427.171 238.394L427.295 238.878L427.78 238.754ZM456.588 232.394L456.628 232.893L456.632 232.892L456.588 232.394ZM472.764 238.246L472.347 238.522L472.351 238.528L472.764 238.246ZM452.622 267.72C456.301 266.773 459.301 265.756 461.613 264.668L461.188 263.763C458.953 264.815 456.018 265.813 452.373 266.752L452.622 267.72ZM461.618 264.666C463.954 263.539 465.735 262.251 466.923 260.788L466.147 260.157C465.082 261.469 463.439 262.677 461.183 263.766L461.618 264.666ZM466.92 260.792C468.139 259.322 468.83 257.671 468.978 255.849L467.981 255.768C467.851 257.374 467.245 258.832 466.15 260.153L466.92 260.792ZM468.977 255.854C469.146 254.027 468.907 251.895 468.282 249.47L467.314 249.719C467.921 252.075 468.136 254.086 467.982 255.762L468.977 255.854ZM468.282 249.47C467.543 246.601 466.67 244.346 465.649 242.729L464.803 243.263C465.746 244.755 466.587 246.899 467.314 249.719L468.282 249.47ZM465.65 242.731C464.602 241.053 463.169 239.902 461.359 239.299L461.043 240.248C462.621 240.773 463.871 241.77 464.802 243.261L465.65 242.731ZM461.366 239.302C459.564 238.673 457.299 238.546 454.599 238.881L454.722 239.874C457.338 239.549 459.433 239.686 461.036 240.246L461.366 239.302ZM454.605 238.881C451.907 239.184 448.506 239.866 444.409 240.922L444.659 241.891C448.733 240.841 452.083 240.171 454.717 239.874L454.605 238.881ZM444.409 240.922L437.737 242.642L437.986 243.61L444.659 241.891L444.409 240.922ZM437.377 243.251L444.115 269.396L445.084 269.147L438.346 243.001L437.377 243.251ZM444.724 269.756L452.622 267.72L452.373 266.752L444.475 268.788L444.724 269.756ZM476.098 247.552C477.038 251.2 477.272 254.338 476.829 256.981L477.816 257.146C478.288 254.324 478.029 251.038 477.066 247.303L476.098 247.552ZM476.83 256.978C476.381 259.583 475.237 261.9 473.389 263.938L474.13 264.61C476.101 262.437 477.333 259.947 477.815 257.148L476.83 256.978ZM473.387 263.941C471.564 265.975 469.001 267.777 465.674 269.336L466.098 270.241C469.51 268.643 472.195 266.769 474.132 264.608L473.387 263.941ZM465.674 269.336C462.341 270.897 458.237 272.308 453.354 273.566L453.604 274.535C458.526 273.266 462.693 271.836 466.098 270.241L465.674 269.336ZM453.354 273.566L449.042 274.678L449.292 275.646L453.604 274.535L453.354 273.566ZM449.042 274.678C448.14 274.91 447.187 275.14 446.185 275.366L446.406 276.341C447.416 276.113 448.379 275.881 449.292 275.646L449.042 274.678ZM445.811 275.978L452.502 301.942L453.471 301.693L446.78 275.729L445.811 275.978ZM452.862 301.334L444.464 303.498L444.714 304.466L453.111 302.302L452.862 301.334ZM445.073 303.857L428.264 238.629L427.295 238.878L444.105 304.107L445.073 303.857ZM427.904 239.238L441.93 235.623L441.681 234.655L427.655 238.269L427.904 239.238ZM441.93 235.623C447.786 234.114 452.683 233.206 456.628 232.893L456.549 231.896C452.525 232.216 447.567 233.138 441.681 234.655L441.93 235.623ZM456.632 232.892C460.564 232.549 463.792 232.86 466.337 233.792L466.681 232.854C463.952 231.854 460.566 231.545 456.545 231.896L456.632 232.892ZM466.337 233.792C468.875 234.722 470.874 236.296 472.347 238.522L473.181 237.97C471.588 235.564 469.417 233.856 466.681 232.854L466.337 233.792ZM472.351 238.528C473.862 240.742 475.116 243.743 476.098 247.552L477.066 247.303C476.067 243.426 474.775 240.306 473.177 237.964L472.351 238.528Z" fill="black" fill-opacity="0.85"/>
</g>
</g>
</g>
<defs>
<filter id="filter0_d" x="130.106" y="231.757" width="351.939" height="154.73" filterUnits="userSpaceOnUse" color-interpolation-filters="sRGB">
<feFlood flood-opacity="0" result="BackgroundImageFix"/>
<feColorMatrix in="SourceAlpha" type="matrix" values="0 0 0 0 0 0 0 0 0 0 0 0 0 0 0 0 0 0 127 0"/>
<feOffset dy="4"/>
<feGaussianBlur stdDeviation="2"/>
<feColorMatrix type="matrix" values="0 0 0 0 0 0 0 0 0 0 0 0 0 0 0 0 0 0 0.25 0"/>
<feBlend mode="normal" in2="BackgroundImageFix" result="effect1_dropShadow"/>
<feBlend mode="normal" in="SourceGraphic" in2="effect1_dropShadow" result="shape"/>
</filter>
</defs>
</svg>
