<svg width="774" height="875" viewBox="0 0 774 875" fill="none" xmlns="http://www.w3.org/2000/svg">
<g id="Frame 9">
<g id="Monotone/Circle">
<ellipse id="Ellipse 1" cx="387.378" cy="377.699" rx="252.079" ry="242.183" fill="#597EF7"/>
</g>
<g id="BD/standing/explaining">
<path id="Fill 1" fill-rule="evenodd" clip-rule="evenodd" d="M373.517 197.095C373.517 197.095 337.908 201.553 337.105 220.151C336.692 229.715 346.557 240.372 341.536 243.164C321.912 254.083 342.747 259.325 330.245 268.18C311.651 281.353 322.065 304.935 341.338 303.895C361.302 302.818 350.997 328.455 385.519 321.951C404.976 318.286 410.73 314.528 424.641 308.621C438.551 302.714 447.982 270.102 431.597 253.527C421.419 243.042 411.358 243.783 406.049 226.637C400.74 209.492 395.446 198.932 386.214 200.089C383.002 195.609 373.517 197.095 373.517 197.095Z" fill="#FAAD14"/>
<path id="Fill 3" fill-rule="evenodd" clip-rule="evenodd" d="M351.564 236.846C351.48 236.486 350.935 236.45 350.794 236.797C349.555 239.855 346.558 248.123 350.116 248.619C354.13 249.18 352.343 240.14 351.564 236.846Z" fill="white"/>
<path id="Fill 5" fill-rule="evenodd" clip-rule="evenodd" d="M383.54 263.044C380.144 248.481 379.682 242.676 379.682 242.676L360.243 250.147L361.375 265.888C361.792 271.683 367.362 276.011 373.671 275.443C380.343 274.842 384.942 269.049 383.54 263.044Z" fill="#F4B784"/>
<path id="Fill 7" fill-rule="evenodd" clip-rule="evenodd" d="M374.043 216.831C374.043 216.831 372.008 210.938 367.52 213.518C364.311 215.362 365.234 213.761 364.631 212.169C362.398 206.259 360.319 219.748 350.132 222.221C349.527 229.459 347.954 255.652 365.091 255.075C370.626 254.889 379.98 252.401 383.929 243.746C386.316 238.516 384.902 232.959 382.634 231.762C375.167 227.816 375.532 224.154 374.043 216.831Z" fill="#FFC999"/>
<path id="Stroke 9" d="M359.539 222.555C359.29 222.609 359.126 222.82 359.143 223.047L359.156 223.123L360.107 226.825L360.037 227.481L359.971 228.023C359.912 228.496 359.84 229.02 359.754 229.593C359.411 231.889 358.92 234.496 358.256 237.365C358.205 237.584 358.33 237.806 358.554 237.896C359.718 238.363 360.908 238.661 362.067 238.823C362.715 238.914 363.249 238.949 363.63 238.953L363.784 238.953C364.069 238.947 364.294 238.731 364.288 238.47C364.282 238.235 364.09 238.044 363.844 238.013L363.761 238.008H363.636L363.358 238C363.054 237.985 362.669 237.951 362.223 237.889C361.417 237.776 360.594 237.593 359.779 237.326L359.353 237.177L359.416 236.898C359.96 234.486 360.38 232.264 360.693 230.262L360.776 229.721C360.88 229.025 360.965 228.399 361.031 227.849L361.108 227.169L361.141 226.825L361.129 226.68L360.16 222.907C360.101 222.678 359.87 222.528 359.622 222.544L359.539 222.555Z" fill="#DD936F"/>
<path id="Stroke 11" d="M370.492 238.948C370.356 238.619 369.954 238.452 369.594 238.577L369.13 238.727C369.045 238.754 368.952 238.783 368.85 238.813C368.253 238.994 367.594 239.174 366.895 239.343C365.431 239.696 363.99 239.947 362.65 240.053C361.576 240.138 360.603 240.125 359.76 240.004C359.38 239.95 359.024 240.188 358.964 240.536C358.904 240.884 359.164 241.211 359.544 241.265C360.509 241.404 361.591 241.418 362.77 241.324C364.197 241.212 365.714 240.947 367.25 240.577C367.978 240.401 368.663 240.214 369.286 240.025L369.826 239.857C369.934 239.822 370.021 239.793 370.086 239.771C370.446 239.646 370.627 239.278 370.492 238.948Z" fill="#C44343"/>
<path id="Stroke 13" d="M359.906 221.824C356.06 220.538 353.134 220.268 351.106 220.592C350.817 220.638 350.615 220.686 350.497 220.724C350.147 220.837 349.963 221.189 350.086 221.51C350.2 221.804 350.532 221.97 350.856 221.909L351.019 221.866C351.088 221.85 351.194 221.828 351.336 221.805C353.127 221.519 355.815 221.767 359.444 222.982C359.793 223.098 360.179 222.934 360.307 222.614C360.434 222.295 360.255 221.941 359.906 221.824Z" fill="#253368"/>
<path id="Stroke 15" d="M374.701 220.768C372.642 220.593 370.426 220.613 368.331 220.964C367.276 221.14 366.3 221.397 365.417 221.742C365.076 221.876 364.917 222.238 365.063 222.551C365.209 222.864 365.605 223.009 365.946 222.875C366.73 222.568 367.612 222.337 368.573 222.176C370.529 221.848 372.629 221.829 374.577 221.995L375.013 222.036C375.226 222.057 375.387 222.077 375.49 222.092C375.857 222.145 376.2 221.915 376.258 221.579C376.315 221.243 376.065 220.927 375.698 220.875L375.426 220.84L375.085 220.804C374.964 220.791 374.836 220.78 374.701 220.768Z" fill="#253368"/>
<path id="Stroke 17" d="M363.743 243.766C363.459 243.76 363.222 243.966 363.215 244.227C363.209 244.462 363.391 244.661 363.635 244.703L363.718 244.711L365.581 244.753C365.865 244.759 366.102 244.553 366.109 244.292C366.115 244.057 365.933 243.858 365.689 243.816L365.606 243.808L363.743 243.766Z" fill="#DD936F"/>
<path id="Fill 19" fill-rule="evenodd" clip-rule="evenodd" d="M394.226 235.857C395.904 229.782 389.467 229.931 389.467 229.931C389.467 229.931 389.088 236.031 387.115 241.426C393.559 241.472 394.226 235.857 394.226 235.857Z" fill="#FFC999"/>
<path id="Fill 21" fill-rule="evenodd" clip-rule="evenodd" d="M390.421 240.024C390.337 239.663 389.792 239.628 389.651 239.974C388.412 243.033 385.415 251.3 388.973 251.797C392.987 252.358 391.2 243.318 390.421 240.024Z" fill="white"/>
<path id="Stroke 23" d="M357.516 228.889C357.145 228.897 356.851 229.179 356.859 229.519C356.888 230.669 356.22 231.552 355.491 231.567C354.761 231.583 354.049 230.728 354.02 229.578C354.012 229.238 353.704 228.969 353.333 228.976C352.962 228.984 352.668 229.266 352.676 229.606C352.72 231.367 353.94 232.832 355.521 232.799C357.102 232.767 358.248 231.252 358.204 229.491C358.195 229.151 357.888 228.881 357.516 228.889Z" fill="#253368"/>
<path id="Stroke 25" d="M372.693 229.051C372.321 229.058 372.027 229.34 372.036 229.681C372.064 230.83 371.397 231.713 370.667 231.729C369.937 231.744 369.225 230.89 369.197 229.74C369.188 229.4 368.88 229.13 368.509 229.138C368.138 229.146 367.844 229.428 367.852 229.768C367.896 231.529 369.116 232.994 370.698 232.961C372.279 232.927 373.424 231.413 373.38 229.652C373.372 229.312 373.064 229.043 372.693 229.051Z" fill="#253368"/>
<path id="Fill 27" fill-rule="evenodd" clip-rule="evenodd" d="M290.5 333.34C290.5 333.34 316.607 294.358 322.481 287.602C336.67 271.283 350.948 275.361 353.915 286.949C357.489 300.919 308.292 347.208 308.292 347.208C308.292 347.208 302.244 353.88 293.209 348.956C282.529 343.136 290.5 333.34 290.5 333.34Z" fill="#FFC999"/>
<path id="Fill 29" fill-rule="evenodd" clip-rule="evenodd" d="M307.523 306.629C310.273 303.115 329.762 268.892 345.047 277.794C357.997 285.336 354.965 297.414 333.384 321.432L307.523 306.629Z" fill="#597EF7"/>
<path id="Fill 31" fill-rule="evenodd" clip-rule="evenodd" d="M258.682 275.179C273.905 316.18 276.342 326.839 283.712 339.45C295.952 360.392 314.154 349.784 309.381 337.318C306.385 329.495 296.591 315.556 289.495 302.775C279.49 284.762 271.579 271.886 271.579 271.886L258.682 275.179Z" fill="#FFC999"/>
<path id="Stroke 33" d="M299.302 319.86C299.159 319.634 298.844 319.557 298.597 319.687C298.375 319.805 298.285 320.051 298.373 320.263L298.409 320.333L306.305 332.854C306.447 333.08 306.763 333.157 307.009 333.027C307.231 332.909 307.322 332.664 307.234 332.451L307.198 332.381L299.302 319.86Z" fill="#DD936F"/>
<path id="Fill 35" fill-rule="evenodd" clip-rule="evenodd" d="M271.841 272.411L262.835 249.045C262.835 249.045 249.455 230.442 245.191 231.882C241.266 233.737 250.776 238.73 252.966 244.079C249.106 244.052 251.215 249.187 251.215 249.187C251.215 249.187 248.148 249.263 249.268 253.483C246.536 255.189 249.153 259.953 249.153 259.953C249.153 259.953 255.758 272.518 262.679 280.753C262.679 280.753 273.686 287.562 271.841 272.411Z" fill="#FFC999"/>
<path id="Fill 37" fill-rule="evenodd" clip-rule="evenodd" d="M269.648 264.467C269.648 264.467 267.984 256.371 266.874 252.261C265.765 248.151 267.159 240.532 263.99 242.715C261.857 244.182 262.555 248.625 262.864 251.915C263.173 255.203 257.91 263.348 262.613 268.5C265.79 271.98 270.434 272.191 269.648 264.467Z" fill="#FFC999"/>
<path id="Stroke 39" d="M253.316 243.733C253.107 243.556 252.781 243.567 252.588 243.759C252.394 243.95 252.407 244.249 252.616 244.426L252.851 244.631C253.041 244.799 253.253 244.991 253.481 245.203C254.134 245.81 254.787 246.46 255.395 247.125C256.015 247.802 256.553 248.458 256.985 249.076C258.321 250.986 258.47 252.22 257.329 252.737C257.073 252.852 256.968 253.136 257.095 253.37C257.221 253.603 257.53 253.699 257.785 253.584C259.7 252.717 259.479 250.89 257.853 248.566C257.395 247.911 256.832 247.224 256.185 246.518C255.558 245.832 254.887 245.164 254.216 244.54L253.877 244.228L253.39 243.797C253.36 243.77 253.335 243.749 253.316 243.733Z" fill="#DD936F"/>
<path id="Stroke 41" d="M251.162 249.061C251.004 249.278 251.067 249.571 251.303 249.716L251.544 249.869C251.739 249.994 251.957 250.137 252.192 250.296C252.861 250.751 253.531 251.24 254.155 251.743C254.88 252.329 255.494 252.896 255.959 253.424C256.99 254.598 257.151 255.373 256.46 255.819C256.091 256.058 255.643 256.099 255.097 255.956C254.513 255.804 253.86 255.45 253.19 254.955C252.854 254.707 252.536 254.44 252.247 254.173L251.934 253.872C251.916 253.854 251.901 253.838 251.889 253.825C251.702 253.628 251.376 253.607 251.161 253.778C250.946 253.949 250.923 254.247 251.11 254.444L251.231 254.568C251.306 254.642 251.401 254.734 251.515 254.839C251.829 255.129 252.175 255.419 252.542 255.691C253.311 256.258 254.074 256.672 254.815 256.865C255.639 257.08 256.406 257.01 257.054 256.592C258.398 255.724 258.116 254.373 256.762 252.832C256.256 252.256 255.603 251.653 254.837 251.034C254.189 250.511 253.497 250.006 252.805 249.537L252.456 249.303L251.878 248.932C251.641 248.786 251.321 248.844 251.162 249.061Z" fill="#DD936F"/>
<path id="Stroke 43" d="M250.362 253.263C250.078 253.239 249.827 253.43 249.801 253.69C249.774 253.95 249.983 254.18 250.267 254.204C250.874 254.256 251.684 254.713 252.689 255.666C254.794 257.662 255.287 258.979 254.763 259.303C254.205 259.647 252.748 259.138 251.75 257.993C251.35 257.535 250.577 258.023 250.903 258.528C252.037 260.291 253.304 261.578 254.775 262.562L255.164 262.816C255.91 263.29 256.509 263.582 257.842 264.14L258.849 264.556C261.968 265.835 263.184 266.891 264.034 269.796C264.108 270.048 264.39 270.198 264.665 270.13C264.941 270.063 265.104 269.804 265.03 269.552C264.114 266.419 262.727 265.149 259.548 263.809L258.087 263.203C256.742 262.636 256.228 262.364 255.383 261.799C254.75 261.375 254.157 260.89 253.597 260.325L253.509 260.233L253.624 260.263C254.22 260.399 254.782 260.373 255.222 260.151L255.339 260.086C256.643 259.281 255.931 257.38 253.431 255.01C252.27 253.909 251.261 253.34 250.362 253.263Z" fill="#DD936F"/>
<path id="Stroke 45" d="M262.488 247.331C262.232 247.326 262.015 247.494 261.971 247.718L261.962 247.794L261.834 253.99L261.702 254.237L261.602 254.435C261.389 254.864 261.178 255.341 260.98 255.856C260.379 257.421 260.033 258.995 260.074 260.478C260.111 261.818 260.467 263.019 261.196 264.033C261.353 264.251 261.672 264.311 261.91 264.167C262.148 264.024 262.214 263.731 262.057 263.513C261.443 262.658 261.138 261.629 261.105 260.455C261.068 259.102 261.391 257.635 261.953 256.17C262.14 255.682 262.341 255.23 262.541 254.826L262.697 254.52C262.741 254.437 262.776 254.373 262.802 254.33C262.827 254.286 262.845 254.239 262.854 254.191L262.862 254.117L262.994 247.812C262.999 247.551 262.773 247.336 262.488 247.331Z" fill="#DD936F"/>
<path id="Fill 47" fill-rule="evenodd" clip-rule="evenodd" d="M357.8 541.558C357.83 541.232 335.748 649.361 335.993 655.206C336.657 671.159 337.362 673.374 328.248 677.938C325.914 679.107 322.268 678.012 318.663 682.032C308.793 693.035 293.965 699.595 291.8 693.553C290.326 687.875 313.884 668.764 315.81 656.85C317.811 644.473 322.558 535.111 325.098 524.419C329.642 505.3 362.429 473.485 357.8 541.558Z" fill="#FFC999"/>
<path id="Fill 49" fill-rule="evenodd" clip-rule="evenodd" d="M334.329 679.775C334.329 679.775 338.371 670.906 335.975 660.368C335.975 660.368 327.027 667.306 320.499 674.738C312.96 683.319 311.061 683.81 311.061 683.81C301.242 687.006 298.772 681.875 298.772 681.875C298.772 681.875 293.632 688.462 283.714 695.718C274.833 702.217 310.443 702.165 314.948 693.759C319.453 685.354 325.656 680.312 325.656 680.312L328.989 692.675L332.371 692.463L334.329 679.775Z" fill="#597EF7"/>
<path id="Fill 51" fill-rule="evenodd" clip-rule="evenodd" d="M319.532 501.158L310.471 629.233L368.581 630.976C368.581 630.976 371.746 568.733 373.93 504.883C373.93 504.883 377.542 471.67 348.818 470.234C320.093 468.797 319.532 501.158 319.532 501.158Z" fill="#E4EBF7"/>
<path id="Fill 53" fill-rule="evenodd" clip-rule="evenodd" d="M320.339 501.815C322.735 450.368 329.142 395.397 334.461 384.231C334.461 384.231 340.862 377.537 359.491 388.608C381.212 401.515 376.963 417.814 376.963 417.814L373.55 504.518C372.976 511.317 370.329 532.41 341.84 529.269C313.798 526.175 320.287 502.936 320.339 501.815Z" fill="#E4EBF7"/>
<path id="Fill 55" fill-rule="evenodd" clip-rule="evenodd" d="M388.639 353.769C377.9 356.969 350.23 357.224 346.875 356.172C343.521 355.12 346.045 349.262 346.045 349.262C331.244 318.896 331.452 319.352 330.456 312.962C329.467 306.615 334.779 295.139 334.779 295.139C334.779 295.139 330.074 283.071 331.526 279.506C333.489 274.685 352.749 275.427 356.207 273.478C359.666 271.528 359.246 265.241 359.246 265.241L385.59 262.812C385.59 262.812 386.369 269.92 387.982 272.011C391.118 276.071 400.859 271.117 408.609 279.231C422.458 293.735 398.241 324.691 390.365 344.562C390.365 344.562 394.067 349.004 388.639 353.769Z" fill="#597EF7"/>
<path id="Stroke 57" d="M379.661 272.896L357.525 275.653C357.157 275.699 356.9 276.009 356.95 276.346C356.995 276.655 357.284 276.879 357.615 276.879L357.706 276.874L379.842 274.116C380.21 274.071 380.468 273.76 380.418 273.423C380.372 273.114 380.083 272.89 379.752 272.89L379.661 272.896Z" fill="#253368"/>
<path id="Stroke 59" d="M374.339 276.514L358.973 279.522C358.61 279.594 358.378 279.921 358.456 280.254C358.527 280.558 358.833 280.762 359.163 280.739L359.254 280.727L374.62 277.719C374.983 277.648 375.214 277.32 375.137 276.988C375.066 276.683 374.76 276.479 374.429 276.502L374.339 276.514Z" fill="#253368"/>
<path id="Stroke 61" d="M386.801 308.495C386.53 308.263 386.104 308.277 385.851 308.526L385.744 308.626C385.594 308.761 385.356 308.957 385.031 309.199C384.322 309.724 383.472 310.252 382.482 310.745C378.565 312.695 373.735 313.546 367.988 312.678L367.493 312.6C365.395 312.25 360.45 312.301 353.438 312.645L351.485 312.746C350.493 312.8 349.478 312.858 348.446 312.92L347.408 312.984C345.539 313.1 343.705 313.224 341.96 313.348L338.519 313.605C338.149 313.634 337.875 313.933 337.907 314.272C337.939 314.611 338.265 314.862 338.635 314.832L340.791 314.669L342.942 314.515C344.416 314.411 345.946 314.31 347.5 314.213L349.557 314.089C350.574 314.029 351.572 313.974 352.545 313.924L354.86 313.812C360.887 313.539 365.223 313.51 367.118 313.791L367.252 313.812C373.531 314.858 378.835 313.963 383.124 311.827C384.189 311.297 385.107 310.727 385.877 310.156L386.167 309.935C386.48 309.691 386.703 309.495 386.835 309.366C387.088 309.117 387.073 308.727 386.801 308.495Z" fill="#253368"/>
<path id="Stroke 63" d="M335.202 287.426C334.862 287.415 334.572 287.638 334.516 287.937L334.507 288.02L334.236 295.251L334.092 295.56C333.938 295.895 333.766 296.279 333.582 296.706C333.055 297.923 332.528 299.24 332.036 300.61C331.37 302.465 330.821 304.271 330.429 305.976C329.93 308.142 329.702 310.07 329.794 311.706C329.941 314.295 330.728 317.572 332.036 321.386C332.677 323.256 333.432 325.221 334.278 327.247C335.259 329.597 336.31 331.908 337.361 334.082L337.892 335.168L338.562 336.502C338.652 336.678 338.72 336.81 338.765 336.895C338.925 337.201 339.327 337.33 339.662 337.183C339.996 337.035 340.137 336.667 339.976 336.361L339.597 335.62L339.116 334.66C338.948 334.32 338.772 333.96 338.59 333.583C337.548 331.428 336.506 329.136 335.534 326.807C334.698 324.803 333.952 322.862 333.319 321.017C332.042 317.293 331.277 314.108 331.137 311.642C331.051 310.128 331.268 308.3 331.744 306.231C332.126 304.573 332.662 302.81 333.314 300.995C333.716 299.874 334.143 298.789 334.573 297.766L334.832 297.16C334.977 296.825 335.113 296.518 335.239 296.241L335.518 295.639C335.541 295.591 335.558 295.541 335.567 295.489L335.575 295.411L335.851 288.063C335.864 287.723 335.573 287.438 335.202 287.426Z" fill="#253368"/>
<path id="Fill 65" fill-rule="evenodd" clip-rule="evenodd" d="M355.999 421.374L330.96 399.557C330.96 399.557 333.914 374.524 345.837 362.884L391.397 358.264C391.397 358.264 410.248 366.693 419.061 398.391L378.801 419.975L355.999 421.374Z" fill="#E4EBF7"/>
<path id="Fill 67" fill-rule="evenodd" clip-rule="evenodd" d="M392.504 358.68L345.837 362.884L346.459 356.25L390.399 351.993L392.504 358.68Z" fill="#E4EBF7"/>
<path id="Stroke 69" d="M362.127 361.791C361.848 361.781 361.614 361.979 361.603 362.234C361.424 366.317 361.393 370.728 361.496 375.419C361.688 384.105 362.326 393.398 363.271 402.782L363.458 404.602C363.772 407.604 364.101 410.448 364.432 413.084L364.695 415.141L365.104 418.13C365.141 418.382 365.395 418.56 365.671 418.526C365.947 418.492 366.141 418.259 366.104 418.006L365.851 416.188C365.752 415.455 365.645 414.644 365.533 413.761L365.335 412.183C364.973 409.244 364.614 406.061 364.275 402.697C363.332 393.334 362.695 384.062 362.504 375.4C362.401 370.727 362.432 366.334 362.61 362.271C362.621 362.016 362.405 361.801 362.127 361.791Z" fill="#A3B5D6"/>
<path id="Stroke 71" d="M392.36 358.567L346.606 362.464C346.329 362.488 346.125 362.713 346.15 362.967C346.174 363.195 346.375 363.37 346.617 363.385L346.699 363.384L392.453 359.487C392.731 359.464 392.935 359.239 392.909 358.985C392.886 358.756 392.684 358.582 392.442 358.567L392.36 358.567Z" fill="#A3B5D6"/>
<path id="Fill 73" fill-rule="evenodd" clip-rule="evenodd" d="M393.055 565.809C393.001 565.485 403.117 646.47 403.308 652.316C403.826 668.274 401.894 670.517 411.324 674.503C413.739 675.526 417.296 674.207 421.191 677.994C431.853 688.358 447.133 693.98 448.846 687.818C449.896 682.06 424.976 664.459 422.171 652.692C419.258 640.468 433.378 544.769 423.954 538.047C414.529 531.326 394.135 498.633 393.055 565.809Z" fill="#FFC999"/>
<path id="Fill 75" fill-rule="evenodd" clip-rule="evenodd" d="M405.394 676.715C405.394 676.715 402.096 668.127 403.707 657.465C403.707 657.465 411.754 663.823 418.818 670.83C426.975 678.923 428.907 679.295 428.907 679.295C438.939 681.873 441.025 676.599 441.025 676.599C441.025 676.599 446.64 682.853 457.073 689.476C466.415 695.406 430.884 697.569 425.766 689.463C420.649 681.357 414.086 676.712 414.086 676.712L411.677 689.255L408.286 689.254L405.394 676.715Z" fill="#597EF7"/>
<path id="Fill 77" fill-rule="evenodd" clip-rule="evenodd" d="M428.777 488.128L440.938 627.515L387.142 631.582C387.142 631.582 377.707 556.434 374.447 492.623C374.447 492.623 370.276 459.464 398.973 457.623C427.67 455.78 428.777 488.128 428.777 488.128Z" fill="#E4EBF7"/>
<path id="Fill 79" fill-rule="evenodd" clip-rule="evenodd" d="M374.728 490.273C368.533 439.094 365.609 382.596 369.01 370.819C369.01 370.819 374.221 363.309 394.474 371.648C418.09 381.37 418.838 399.783 418.838 399.783L429.124 485.221C429.688 492.022 431.948 511.79 403.521 515.361C375.539 518.875 374.863 491.388 374.728 490.273Z" fill="#E4EBF7"/>
<path id="Fill 81" fill-rule="evenodd" clip-rule="evenodd" d="M410.462 344.736C410.462 344.736 392.223 308.819 389.386 299.873C382.537 278.264 393.154 274.045 405.346 278.992C420.044 284.954 437.859 343.651 437.859 343.651C437.859 343.651 439.437 351.095 429.886 355.193C418.599 360.037 410.462 344.736 410.462 344.736Z" fill="#FFC999"/>
<path id="Fill 83" fill-rule="evenodd" clip-rule="evenodd" d="M399.482 322.884C397.919 318.804 373.277 284.227 394.759 275.447C408.772 269.719 416.33 281.514 428.599 311.768L399.482 322.884Z" fill="#597EF7"/>
<path id="Fill 85" fill-rule="evenodd" clip-rule="evenodd" d="M342.4 348.56C342.804 352.316 346.209 355.203 350.327 355.284L422.728 356.716C431.043 356.879 437.696 350.436 437.058 342.84C436.434 335.416 429.091 330.02 421.045 331.072L349.352 340.442C345.035 341.006 341.971 344.585 342.4 348.56Z" fill="#FFC999"/>
<path id="Fill 87" fill-rule="evenodd" clip-rule="evenodd" d="M348.325 365.617L332.408 319.999C332.144 319.247 331.387 318.733 330.525 318.722L285.889 318.168C284.503 318.151 283.516 319.398 283.967 320.599L300.584 365.005C300.85 365.72 301.568 366.212 302.391 366.245L346.329 368.01C347.722 368.066 348.75 366.834 348.325 365.617Z" fill="#253368"/>
<path id="Fill 89" fill-rule="evenodd" clip-rule="evenodd" d="M345.973 365.06L330.332 320.238C330.014 319.327 329.096 318.705 328.053 318.691L282.865 318.131C281.895 318.119 281.205 318.991 281.52 319.831L298.368 364.852C298.664 365.643 299.457 366.187 300.369 366.223L343.555 367.959C345.243 368.027 346.486 366.534 345.973 365.06Z" fill="#253368"/>
<path id="Fill 91" fill-rule="evenodd" clip-rule="evenodd" d="M324.213 323.011C323.709 323.526 323.89 324.43 324.619 325.031C325.349 325.632 326.35 325.703 326.855 325.188C327.361 324.673 327.179 323.768 326.449 323.166C325.72 322.566 324.719 322.496 324.213 323.011Z" fill="#ADC6FF"/>
<path id="Fill 93" fill-rule="evenodd" clip-rule="evenodd" d="M324.813 323.549C324.551 323.817 324.645 324.286 325.025 324.599C325.402 324.909 325.923 324.946 326.185 324.679C326.447 324.412 326.353 323.942 325.974 323.631C325.596 323.319 325.076 323.282 324.813 323.549Z" fill="#E4EBF7"/>
<path id="Fill 95" fill-rule="evenodd" clip-rule="evenodd" d="M328.456 357.039C325.891 356.811 324.541 355.83 324.785 353.872C321.7 352.983 322.045 350.589 322.045 350.589C322.045 350.589 316.107 350.505 315.108 348.182C314.721 347.279 315.474 346.312 316.529 346.246C329.251 345.457 338.321 339.282 338.321 339.282C338.321 339.282 333.321 332.553 333.85 329.449C334.005 328.53 335.317 328.234 335.928 328.975C341.173 335.315 351.69 340.288 351.69 340.288C351.69 340.288 364.314 351.122 350.62 356.037C350.62 356.037 340.182 359.847 332.912 359.365C329.472 359.136 328.456 357.039 328.456 357.039Z" fill="#FFC999"/>
<path id="Stroke 97" d="M331.401 348.523C331.295 348.349 331.055 348.287 330.865 348.384C329.954 348.851 328.889 349.231 327.701 349.531C326.287 349.889 324.768 350.118 323.239 350.242C322.471 350.305 321.816 350.333 321.322 350.34L320.965 350.341C320.747 350.339 320.569 350.498 320.566 350.697C320.563 350.875 320.7 351.024 320.883 351.056L320.954 351.063L321.146 351.064C321.677 351.061 322.421 351.033 323.309 350.961C324.881 350.833 326.446 350.598 327.911 350.227C329.156 349.912 330.279 349.512 331.249 349.014C331.439 348.917 331.507 348.697 331.401 348.523Z" fill="#DD936F"/>
<path id="Stroke 99" d="M332.599 352.104C332.505 351.925 332.269 351.849 332.073 351.936L331.72 352.087C330.209 352.712 328.586 353.113 326.956 353.333C325.95 353.468 325.143 353.512 324.642 353.509C324.418 353.506 324.24 353.666 324.237 353.865C324.234 354.042 324.371 354.191 324.555 354.224L324.625 354.231L324.791 354.231L325.144 354.222C325.652 354.202 326.308 354.15 327.071 354.047C328.768 353.818 330.46 353.4 332.044 352.745L332.416 352.586C332.612 352.499 332.694 352.283 332.599 352.104Z" fill="#DD936F"/>
<path id="Stroke 101" d="M334.862 356.106C334.767 355.927 334.532 355.852 334.336 355.938C333.917 356.124 332.928 356.297 331.583 356.439C330.895 356.512 330.157 356.572 329.419 356.621L328.705 356.665L328.436 356.679C328.219 356.689 328.051 356.859 328.063 357.058C328.074 357.257 328.259 357.41 328.476 357.4L328.752 357.385C328.971 357.373 329.214 357.359 329.476 357.341C330.224 357.292 330.973 357.23 331.673 357.156L332.227 357.094C333.38 356.955 334.22 356.791 334.679 356.588C334.875 356.502 334.957 356.286 334.862 356.106Z" fill="#DD936F"/>
<path id="Stroke 103" d="M421.062 330.711L420.991 330.714L351.088 339.463C350.873 339.49 350.722 339.672 350.751 339.869C350.777 340.045 350.937 340.174 351.124 340.181L351.195 340.178L421.098 331.429C421.313 331.402 421.464 331.22 421.435 331.022C421.409 330.847 421.249 330.718 421.062 330.711Z" fill="#DD936F"/>
<path id="Stroke 105" d="M348.702 412.746C348.472 412.602 348.158 412.656 348.001 412.867C347.861 413.054 347.892 413.302 348.063 413.456L348.133 413.509L366.6 425.072L386.639 626.695C386.662 626.924 386.863 627.099 387.105 627.114H387.187C387.437 627.093 387.627 626.909 387.645 626.687L387.644 626.612L367.583 424.772C367.572 424.662 367.519 424.56 367.434 424.484L367.365 424.432L348.702 412.746Z" fill="#A3B5D6"/>
<path id="Stroke 107" d="M390.631 304.25C390.48 303.939 390.082 303.799 389.743 303.937C389.432 304.064 389.278 304.38 389.37 304.672L389.402 304.75L398.489 323.481C398.628 323.766 398.974 323.908 399.292 323.822L399.378 323.793L428.153 312C428.492 311.861 428.644 311.496 428.492 311.186C428.353 310.901 428.007 310.76 427.689 310.846L427.604 310.875L399.446 322.415L390.631 304.25Z" fill="#253368"/>
</g>
<g id="Color/Gold coins">
<path id="Ellipse" d="M527.459 641.217C569.641 641.217 603.836 608.364 603.836 567.838C603.836 527.312 569.641 494.46 527.459 494.46C485.277 494.46 451.082 527.312 451.082 567.838C451.082 608.364 485.277 641.217 527.459 641.217Z" fill="#FFD666"/>
<path id="Ellipse_2" d="M527.011 625.702C560.522 625.702 587.687 599.603 587.687 567.408C587.687 535.214 560.522 509.115 527.011 509.115C493.501 509.115 466.335 535.214 466.335 567.408C466.335 599.603 493.501 625.702 527.011 625.702Z" fill="#FFC53D"/>
<path id="Vector" d="M515.64 531.313C516.15 531.313 516.617 531.587 516.848 532.024L527.544 552.159L538.24 532.024C538.464 531.602 538.908 531.331 539.399 531.314L539.448 531.313H547.243C547.714 531.313 548.152 531.548 548.399 531.934C548.645 532.32 548.665 532.801 548.451 533.205L538.367 552.196L547.375 552.196C548.286 552.196 549.025 552.906 549.025 553.781V561.094C549.025 561.969 548.286 562.679 547.375 562.679L532.743 562.679V572.998L547.375 572.998C548.286 572.998 549.025 573.707 549.025 574.583V581.895C549.025 582.771 548.286 583.48 547.375 583.48L532.743 583.48L532.744 603.062C532.744 603.781 532.133 604.364 531.38 604.364H523.196C522.443 604.364 521.833 603.781 521.833 603.062L521.832 583.48L507.201 583.48C506.29 583.48 505.551 582.771 505.551 581.895V574.583C505.551 573.707 506.29 572.998 507.201 572.998L521.832 572.998V562.679L507.201 562.679C506.29 562.679 505.551 561.969 505.551 561.094V553.781C505.551 552.906 506.29 552.196 507.201 552.196L516.72 552.196L506.637 533.205C506.423 532.801 506.442 532.32 506.689 531.934C506.935 531.548 507.373 531.313 507.845 531.313H515.64Z" fill="white"/>
</g>
<g id="Color/Line chart 01">
<path id="Fill 1_2" fill-rule="evenodd" clip-rule="evenodd" d="M233.267 254.987H42.7031V238.547C42.7031 234.981 45.7062 232.09 49.4102 232.09H226.56C230.264 232.09 233.267 234.981 233.267 238.547V254.987Z" fill="#A3B5D6"/>
<path id="Fill 3_2" fill-rule="evenodd" clip-rule="evenodd" d="M226.56 413.275H49.4102C45.7062 413.275 42.7031 410.384 42.7031 406.817V253.062H233.267V406.817C233.267 410.384 230.264 413.275 226.56 413.275Z" fill="#E4EBF7"/>
<path id="Fill 5_2" fill-rule="evenodd" clip-rule="evenodd" d="M58.1895 242.746C58.1895 244.984 56.3048 246.799 53.98 246.799C51.6554 246.799 49.771 244.984 49.771 242.746C49.771 240.508 51.6554 238.693 53.98 238.693C56.3048 238.693 58.1895 240.508 58.1895 242.746Z" fill="#FF7946"/>
<path id="Fill 7_2" fill-rule="evenodd" clip-rule="evenodd" d="M73.909 242.746C73.909 244.984 72.0246 246.799 69.6997 246.799C67.3751 246.799 65.4907 244.984 65.4907 242.746C65.4907 240.508 67.3751 238.693 69.6997 238.693C72.0246 238.693 73.909 240.508 73.909 242.746Z" fill="#FAAD14"/>
<path id="Fill 9" fill-rule="evenodd" clip-rule="evenodd" d="M89.6287 242.746C89.6287 244.984 87.7443 246.799 85.4194 246.799C83.0949 246.799 81.2104 244.984 81.2104 242.746C81.2104 240.508 83.0949 238.693 85.4194 238.693C87.7443 238.693 89.6287 240.508 89.6287 242.746Z" fill="#7CB305"/>
<path id="Fill 11" fill-rule="evenodd" clip-rule="evenodd" d="M63.2994 391.482C62.1434 391.482 61.2065 390.58 61.2065 389.468V272.749C61.2065 271.637 62.1434 270.735 63.2994 270.735H214.752C215.908 270.735 216.845 271.637 216.845 272.749V389.468C216.845 390.58 215.908 391.482 214.752 391.482H63.2994Z" fill="white"/>
<path id="Path" d="M113.806 321.611C114.678 320.895 115.997 321.056 116.657 321.946L116.691 321.994L147.168 365.883L170.742 349.968C171.021 349.779 171.347 349.665 171.686 349.636L171.759 349.631L202.909 348.069C203.982 348.015 204.897 348.807 204.953 349.838C205.008 350.851 204.213 351.718 203.168 351.799L203.111 351.803L172.521 353.336L147.774 370.043C146.896 370.636 145.688 370.432 145.071 369.598L145.037 369.551L114.671 325.822L79.1811 355.014C78.3799 355.673 77.1818 355.597 76.4769 354.853L76.4375 354.81C75.7515 354.04 75.8305 352.889 76.6055 352.212L76.6501 352.174L113.806 321.611Z" fill="#FF7946"/>
<path id="Path_2" d="M198.295 295.124C198.894 294.267 200.103 294.038 200.995 294.613C201.871 295.178 202.117 296.307 201.559 297.16L201.527 297.207L173.815 336.908C173.12 337.903 171.648 338.019 170.793 337.159L170.751 337.116L139.076 303.257L117.12 317.49C116.81 317.691 116.447 317.801 116.074 317.809L115.999 317.809L77.8836 317.211C76.809 317.194 75.9522 316.343 75.9695 315.311C75.987 314.297 76.8418 313.484 77.8908 313.472L77.9472 313.472L115.45 314.061L138.303 299.248C139.091 298.737 140.145 298.849 140.798 299.505L140.839 299.548L171.975 332.83L198.295 295.124Z" fill="#FAAD14"/>
<path id="Path_3" d="M150.286 320.549C150.772 320.141 151.435 319.992 152.057 320.147L152.121 320.164L172.413 325.947L202.321 321.369C203.363 321.209 204.344 321.877 204.539 322.867L204.548 322.921C204.715 323.923 204.019 324.865 202.989 325.052L202.933 325.061L172.589 329.706C172.328 329.746 172.062 329.735 171.806 329.672L171.73 329.652L152.042 324.042L117.831 352.788C117.201 353.317 116.291 353.399 115.572 352.996L115.518 352.965L74.6474 328.397C73.7364 327.849 73.4599 326.696 74.0299 325.82C74.5896 324.961 75.7572 324.689 76.6617 325.198L76.7116 325.227L116.357 349.059L150.286 320.549Z" fill="#597EF7"/>
<path id="Fill 1_3" fill-rule="evenodd" clip-rule="evenodd" d="M115.195 286.016H76.8565C75.2868 286.016 74.0029 284.78 74.0029 283.268C74.0029 281.757 75.2868 280.521 76.8565 280.521H115.195C116.765 280.521 118.049 281.757 118.049 283.268C118.049 284.78 116.765 286.016 115.195 286.016Z" fill="#CCD7EE"/>
<path id="Fill 3_3" fill-rule="evenodd" clip-rule="evenodd" d="M93.0292 298.973H78.7606C77.1847 298.973 75.9067 297.743 75.9067 296.226C75.9067 294.709 77.1847 293.479 78.7606 293.479H93.0292C94.6053 293.479 95.8828 294.709 95.8828 296.226C95.8828 297.743 94.6053 298.973 93.0292 298.973Z" fill="#CCD7EE"/>
<path id="Stroke 9_2" d="M196.408 358.757C189.725 358.757 184.323 364.032 184.323 370.522C184.323 377.011 189.725 382.286 196.408 382.286C203.09 382.286 208.492 377.011 208.492 370.522C208.492 364.032 203.09 358.757 196.408 358.757ZM196.408 363.183C200.529 363.183 203.886 366.46 203.886 370.522C203.886 374.583 200.529 377.861 196.408 377.861C192.286 377.861 188.93 374.583 188.93 370.522C188.93 366.46 192.286 363.183 196.408 363.183Z" fill="#CCD7EE"/>
<path id="Stroke 11_2" d="M204.445 364.317C205.614 363.836 206.968 364.357 207.468 365.481C208.14 366.99 208.492 368.633 208.492 370.322C208.492 371.704 208.256 373.057 207.801 374.334C207.388 375.49 206.078 376.105 204.875 375.709C203.691 375.318 203.052 374.094 203.424 372.954L203.444 372.898C203.735 372.083 203.886 371.215 203.886 370.322C203.886 369.278 203.679 368.269 203.286 367.342L203.233 367.222C202.733 366.098 203.275 364.798 204.445 364.317Z" fill="#597EF7"/>
</g>
<g id="Color/Shield">
<path id="Fill 1_4" fill-rule="evenodd" clip-rule="evenodd" d="M601.238 182.803H510.556C507.606 182.803 505.143 184.907 504.73 187.713C502.035 206.021 484.659 215.433 477.069 218.607C474.925 219.504 473.532 221.529 473.532 223.776V298.276C473.532 347.03 555.897 378.095 555.897 378.095C555.897 378.095 638.262 347.03 638.262 298.276V223.776C638.262 221.529 636.868 219.504 634.724 218.607C627.135 215.433 609.759 206.021 607.063 187.713C606.65 184.907 604.187 183.038 601.238 183.038V182.803Z" fill="#E4EBF7"/>
<path id="Fill 3_4" fill-rule="evenodd" clip-rule="evenodd" d="M593.614 197.317C594.732 200.635 596.228 203.835 598.093 206.891C600.834 211.382 604.382 215.569 608.638 219.333C613.41 223.555 618.455 226.713 622.839 228.996V297.874C622.839 316.518 604.253 333.032 588.662 343.602C575.987 352.194 563.078 358.37 555.886 361.53C548.811 358.427 536.19 352.393 523.587 343.91C512.924 336.732 504.54 329.327 498.67 321.9C495.474 317.857 493.035 313.803 491.421 309.849C489.761 305.785 488.954 301.868 488.954 297.874V228.996C493.338 226.713 498.383 223.555 503.155 219.333C507.411 215.569 510.959 211.383 513.7 206.891C515.565 203.836 517.061 200.635 518.179 197.317H593.614Z" fill="#597EF7"/>
<path id="Fill 5_3" fill-rule="evenodd" clip-rule="evenodd" d="M559.846 236.082L532.774 275.549C531.317 277.688 532.883 280.32 535.509 280.32H547.636L532.726 307.278C531.614 309.457 534.48 311.479 536.238 309.756L576.79 270.758C578.859 268.729 577.391 265.262 574.463 265.262H556.125L563.796 237.795C564.395 235.457 561.212 234.076 559.846 236.082Z" fill="white"/>
</g>
<g id="Gray/Correlation">
<path id="&#229;&#189;&#162;&#231;&#138;&#182;&#231;&#187;&#147;&#229;&#144;&#136;" fill-rule="evenodd" clip-rule="evenodd" d="M285.565 515.867C291.5 523 290.305 533.413 282.896 539.126C279.619 541.652 275.677 542.836 271.785 542.755L271.781 542.752C232.005 547.631 225.58 571.212 224.562 577.679C224.56 577.703 224.557 577.73 224.554 577.756C224.523 578.028 224.485 578.297 224.441 578.564C224.385 579.055 224.374 579.322 224.374 579.322L224.314 579.241C222.568 587.542 214.495 593.333 205.583 592.385C196.147 591.382 189.343 583.205 190.386 574.122C191.418 565.13 199.753 558.62 209.075 559.465L209.357 559.493C240.662 561.673 252.123 533.583 255.133 523.885C255.725 519.862 257.85 516.039 261.404 513.298C268.813 507.585 279.631 508.735 285.565 515.867Z" fill="#ADC6FF"/>
<path id="Fill 9_2" fill-rule="evenodd" clip-rule="evenodd" d="M274.304 509.465C283.768 510.47 290.592 518.655 289.547 527.747C288.501 536.839 279.982 543.396 270.518 542.391C261.054 541.386 254.23 533.201 255.276 524.109C256.321 515.017 264.841 508.461 274.304 509.465Z" fill="#ADC6FF"/>
</g>
<g id="Gray/Correlation_2">
<path id="&#229;&#189;&#162;&#231;&#138;&#182;&#231;&#187;&#147;&#229;&#144;&#136;_2" fill-rule="evenodd" clip-rule="evenodd" d="M573.745 450.743C580.957 448.887 588.367 452.939 590.409 459.811L590.469 460.02C597.834 482.925 622.771 482.967 631.079 482.313C638.271 480.62 645.586 484.755 647.512 491.661C649.464 498.66 645.141 505.854 637.856 507.729C631.947 509.25 625.904 506.804 622.791 502.091L622.754 502.158C607.37 472.564 586.295 474.898 580.872 476.072L580.813 476.088C580.597 476.144 580.381 476.194 580.164 476.239C579.768 476.341 579.557 476.411 579.557 476.411L579.602 476.345C572.716 477.495 565.932 473.422 564.089 466.811C562.137 459.812 566.46 452.618 573.745 450.743Z" fill="#ADC6FF"/>
</g>
<g id="LOGIN" filter="url(#filter0_d)">
<path d="M205.686 471.215L179.509 373.625L192.136 370.499L215.726 458.445L255.858 448.509L257.284 458.44L205.686 471.215ZM267.611 403.594C269.323 409.978 271.331 415.564 273.634 420.353C275.971 425.086 278.677 428.93 281.75 431.887C284.812 434.798 288.246 436.748 292.054 437.737C295.861 438.725 300.131 438.634 304.863 437.462C309.64 436.279 313.447 434.371 316.283 431.738C319.164 429.093 321.213 425.786 322.428 421.816C323.632 417.8 324.043 413.184 323.663 407.967C323.316 402.694 322.286 396.865 320.574 390.481C318.874 384.143 316.855 378.608 314.518 373.875C312.227 369.132 309.551 365.304 306.489 362.393C303.428 359.481 299.97 357.537 296.118 356.56C292.31 355.571 288.018 355.668 283.24 356.851C278.553 358.011 274.77 359.914 271.888 362.558C269.052 365.192 267.027 368.494 265.811 372.464C264.641 376.423 264.223 381.017 264.558 386.245C264.893 391.473 265.911 397.256 267.611 403.594ZM254.575 406.822C250.008 389.799 249.981 376.311 254.493 366.358C259.005 356.406 267.676 349.841 280.508 346.664C293.43 343.465 304.369 345.174 313.326 351.792C322.328 358.399 329.112 370.214 333.678 387.237C338.293 404.441 338.322 418.025 333.765 427.989C329.253 437.942 320.536 444.518 307.613 447.717C301.198 449.305 295.26 449.689 289.799 448.869C284.326 448.003 279.37 445.898 274.932 442.555C270.481 439.167 266.541 434.518 263.111 428.608C259.728 422.686 256.882 415.424 254.575 406.822ZM430.298 415.314L425.136 406.381C424.205 408.88 422.781 411.261 420.864 413.522C419.275 415.557 417.023 417.563 414.109 419.54C411.182 421.471 407.443 423.001 402.893 424.127C397.342 425.501 391.906 425.858 386.585 425.196C381.251 424.488 376.27 422.559 371.64 419.408C367.01 416.258 362.809 411.721 359.037 405.799C355.311 399.866 352.233 392.372 349.804 383.317C348.067 376.843 347.065 370.935 346.797 365.594C346.529 360.253 346.875 355.484 347.836 351.287C348.797 347.09 350.273 343.369 352.265 340.123C354.258 336.878 356.64 334.091 359.412 331.764C362.172 329.39 365.242 327.447 368.621 325.935C372.033 324.366 375.605 323.119 379.336 322.196C382.885 321.317 386.274 320.744 389.501 320.476C392.729 320.207 395.611 320.097 398.147 320.146C401.071 320.194 403.809 320.361 406.36 320.647L410.103 330.801C407.585 330.458 404.835 330.246 401.853 330.164C399.305 330.07 396.349 330.175 392.985 330.476C389.666 330.767 386.141 331.374 382.41 332.298C377.45 333.526 373.317 335.394 370.011 337.902C366.693 340.365 364.202 343.469 362.537 347.212C360.86 350.911 360.035 355.34 360.06 360.499C360.119 365.603 361.035 371.459 362.808 378.069C364.69 385.087 366.848 391.143 369.282 396.238C371.704 401.287 374.481 405.307 377.612 408.298C380.743 411.288 384.269 413.216 388.188 414.08C392.108 414.944 396.502 414.774 401.371 413.568C405.056 412.656 408.188 411.398 410.766 409.794C413.39 408.178 415.541 406.608 417.218 405.082C419.165 403.296 420.762 401.38 422.008 399.334L415.523 375.157L405.699 377.879L397.1 380.008L393.289 370.957L423.934 363.37L437.396 413.557L430.298 415.314ZM458.9 408.522L432.723 310.933L445.213 307.841L471.39 405.43L458.9 408.522ZM487.811 318.224L508.724 396.187L496.711 399.161L470.535 301.572L483.502 298.361L555.672 363.633L534.759 285.67L546.772 282.696L572.949 380.286L560.508 383.293L487.811 318.224Z" fill="white"/>
<path d="M205.686 471.215L205.201 471.335L205.33 471.818L205.815 471.698L205.686 471.215ZM179.509 373.625L179.38 373.143L178.894 373.263L179.024 373.746L179.509 373.625ZM192.136 370.499L192.621 370.379L192.492 369.896L192.006 370.016L192.136 370.499ZM215.726 458.445L215.24 458.565L215.37 459.048L215.855 458.928L215.726 458.445ZM255.858 448.509L256.355 448.447L256.275 447.891L255.728 448.026L255.858 448.509ZM257.284 458.44L257.414 458.923L257.845 458.816L257.782 458.378L257.284 458.44ZM206.171 471.095L179.995 373.505L179.024 373.746L205.201 471.335L206.171 471.095ZM179.639 374.108L192.265 370.982L192.006 370.016L179.38 373.143L179.639 374.108ZM191.65 370.619L215.24 458.565L216.211 458.325L192.621 370.379L191.65 370.619ZM215.855 458.928L255.987 448.992L255.728 448.026L215.596 457.962L215.855 458.928ZM255.361 448.571L256.787 458.502L257.782 458.378L256.355 448.447L255.361 448.571ZM257.155 457.957L205.556 470.732L205.815 471.698L257.414 458.923L257.155 457.957ZM273.634 420.353L273.182 420.561L273.184 420.566L273.634 420.353ZM281.75 431.887L281.404 432.241L281.406 432.243L281.75 431.887ZM316.283 431.738L315.938 431.37L315.936 431.372L316.283 431.738ZM322.428 421.816L322.909 421.967L322.91 421.965L322.428 421.816ZM323.663 407.967L323.162 407.991L323.162 407.994L323.663 407.967ZM314.518 373.875L314.066 374.084L314.068 374.088L314.518 373.875ZM296.118 356.56L295.998 357.041L296.001 357.042L296.118 356.56ZM271.888 362.558L271.543 362.191L271.541 362.193L271.888 362.558ZM265.811 372.464L265.33 372.312L265.329 372.317L265.811 372.464ZM313.326 351.792L313.03 352.189L313.031 352.19L313.326 351.792ZM333.765 427.989L333.306 427.777L333.306 427.779L333.765 427.989ZM289.799 448.869L289.728 449.36L289.732 449.361L289.799 448.869ZM274.932 442.555L274.63 442.948L274.632 442.95L274.932 442.555ZM263.111 428.608L262.675 428.847L262.677 428.85L263.111 428.608ZM267.125 403.715C268.844 410.121 270.862 415.738 273.182 420.561L274.087 420.145C271.8 415.391 269.802 409.835 268.096 403.474L267.125 403.715ZM273.184 420.566C275.541 425.339 278.278 429.235 281.404 432.241L282.097 431.533C279.075 428.626 276.402 424.833 274.085 420.141L273.184 420.566ZM281.406 432.243C284.526 435.21 288.036 437.206 291.934 438.218L292.173 437.256C288.456 436.29 285.098 434.387 282.095 431.531L281.406 432.243ZM291.934 438.218C295.841 439.233 300.199 439.132 304.992 437.945L304.733 436.979C300.063 438.136 295.881 438.218 292.173 437.256L291.934 438.218ZM304.992 437.945C309.831 436.747 313.719 434.807 316.63 432.104L315.936 431.372C313.175 433.936 309.45 435.812 304.733 436.979L304.992 437.945ZM316.628 432.106C319.577 429.399 321.67 426.015 322.909 421.967L321.947 421.664C320.756 425.557 318.752 428.788 315.938 431.37L316.628 432.106ZM322.91 421.965C324.134 417.88 324.548 413.202 324.164 407.939L323.162 407.994C323.539 413.165 323.129 417.72 321.947 421.666L322.91 421.965ZM324.164 407.943C323.815 402.63 322.778 396.769 321.059 390.361L320.089 390.602C321.795 396.961 322.817 402.757 323.162 407.991L324.164 407.943ZM321.059 390.361C319.353 383.998 317.324 378.431 314.969 373.663L314.068 374.088C316.387 378.784 318.395 384.287 320.089 390.602L321.059 390.361ZM314.971 373.667C312.659 368.881 309.95 364.999 306.834 362.036L306.144 362.749C309.152 365.609 311.795 369.382 314.066 374.084L314.971 373.667ZM306.834 362.036C303.713 359.068 300.178 357.078 296.234 356.078L296.001 357.042C299.763 357.996 303.143 359.894 306.144 362.749L306.834 362.036ZM296.237 356.078C292.329 355.064 287.949 355.17 283.111 356.368L283.37 357.334C288.087 356.166 292.291 356.078 295.998 357.041L296.237 356.078ZM283.111 356.368C278.361 357.544 274.498 359.479 271.543 362.191L272.233 362.926C275.041 360.348 278.746 358.479 283.37 357.334L283.111 356.368ZM271.541 362.193C268.638 364.889 266.569 368.266 265.33 372.312L266.292 372.616C267.484 368.721 269.467 365.495 272.235 362.924L271.541 362.193ZM265.329 372.317C264.139 376.343 263.719 380.997 264.057 386.268L265.06 386.222C264.727 381.037 265.143 376.503 266.293 372.611L265.329 372.317ZM264.057 386.268C264.394 391.535 265.419 397.352 267.125 403.715L268.096 403.474C266.402 397.16 265.392 391.41 265.06 386.222L264.057 386.268ZM255.06 406.702C250.507 389.727 250.508 376.372 254.952 366.569L254.034 366.148C249.455 376.25 249.51 389.87 254.089 406.942L255.06 406.702ZM254.952 366.569C259.389 356.78 267.92 350.296 280.637 347.147L280.378 346.181C267.432 349.386 258.62 356.032 254.034 366.148L254.952 366.569ZM280.637 347.147C293.447 343.976 304.222 345.681 313.03 352.189L313.622 351.395C304.517 344.668 293.413 342.954 280.378 346.181L280.637 347.147ZM313.031 352.19C321.899 358.698 328.64 370.383 333.193 387.357L334.164 387.117C329.584 370.044 322.758 358.1 313.621 351.394L313.031 352.19ZM333.193 387.357C337.795 404.514 337.795 417.964 333.306 427.777L334.223 428.201C338.849 418.087 338.791 404.369 334.164 387.117L333.193 387.357ZM333.306 427.779C328.869 437.567 320.293 444.063 307.484 447.234L307.743 448.2C320.778 444.973 329.637 438.316 334.223 428.199L333.306 427.779ZM307.484 447.234C301.119 448.81 295.249 449.186 289.866 448.377L289.732 449.361C295.27 450.193 301.276 449.801 307.743 448.2L307.484 447.234ZM289.87 448.377C284.48 447.524 279.603 445.453 275.231 442.161L274.632 442.95C279.138 446.343 284.172 448.481 289.728 449.36L289.87 448.377ZM275.233 442.163C270.847 438.824 266.949 434.23 263.546 428.365L262.677 428.85C266.132 434.806 270.114 439.511 274.63 442.948L275.233 442.163ZM263.547 428.368C260.191 422.494 257.359 415.274 255.06 406.702L254.089 406.942C256.405 415.574 259.264 422.878 262.675 428.847L263.547 428.368ZM430.298 415.314L429.863 415.556L430.055 415.889L430.427 415.797L430.298 415.314ZM425.136 406.381L425.571 406.139L425.033 405.21L424.664 406.202L425.136 406.381ZM420.864 413.522L420.478 413.198L420.471 413.205L420.465 413.213L420.864 413.522ZM414.109 419.54L414.392 419.955L414.397 419.952L414.109 419.54ZM386.585 425.196L386.526 425.689L386.53 425.689L386.585 425.196ZM359.037 405.799L358.612 406.057L358.614 406.06L359.037 405.799ZM359.412 331.764L359.741 332.145L359.745 332.142L359.412 331.764ZM368.621 325.935L368.834 326.389L368.839 326.387L368.621 325.935ZM398.147 320.146L398.146 320.643L398.147 320.643L398.147 320.146ZM406.36 320.647L406.832 320.483L406.723 320.187L406.408 320.152L406.36 320.647ZM410.103 330.801L410.043 331.294L410.857 331.404L410.575 330.637L410.103 330.801ZM401.853 330.164L401.843 330.661L401.848 330.661L401.853 330.164ZM392.985 330.476L393.037 330.972L393.038 330.972L392.985 330.476ZM370.011 337.902L370.317 338.302L370.321 338.299L370.011 337.902ZM362.537 347.212L362.996 347.423L362.997 347.419L362.537 347.212ZM360.06 360.499L359.558 360.493L359.558 360.497L360.06 360.499ZM369.282 396.238L368.829 396.444L368.829 396.445L369.282 396.238ZM410.766 409.794L410.496 409.37L410.494 409.371L410.766 409.794ZM417.218 405.082L417.561 405.451L417.562 405.45L417.218 405.082ZM422.008 399.334L422.439 399.596L422.548 399.417L422.493 399.213L422.008 399.334ZM415.523 375.157L416.008 375.037L415.875 374.54L415.38 374.678L415.523 375.157ZM405.699 377.879L405.829 378.362L405.842 378.358L405.699 377.879ZM397.1 380.008L396.637 380.193L396.806 380.596L397.229 380.491L397.1 380.008ZM393.289 370.957L393.16 370.474L392.603 370.612L392.826 371.142L393.289 370.957ZM423.934 363.37L424.419 363.25L424.29 362.767L423.805 362.887L423.934 363.37ZM437.396 413.557L437.525 414.04L438.011 413.92L437.881 413.437L437.396 413.557ZM430.733 415.073L425.571 406.139L424.701 406.622L429.863 415.556L430.733 415.073ZM424.664 406.202C423.755 408.643 422.362 410.975 420.478 413.198L421.251 413.846C423.201 411.546 424.655 409.118 425.607 406.56L424.664 406.202ZM420.465 413.213C418.916 415.197 416.707 417.17 413.82 419.128L414.397 419.952C417.34 417.956 419.634 415.917 421.264 413.83L420.465 413.213ZM413.825 419.124C410.958 421.017 407.275 422.527 402.763 423.644L403.022 424.61C407.61 423.474 411.405 421.926 414.392 419.955L413.825 419.124ZM402.763 423.644C397.268 425.005 391.894 425.356 386.639 424.702L386.53 425.689C391.917 426.36 397.416 425.998 403.022 424.61L402.763 423.644ZM386.643 424.702C381.392 424.006 376.486 422.107 371.92 419L371.36 419.817C376.054 423.011 381.111 424.97 386.526 425.689L386.643 424.702ZM371.92 419C367.36 415.897 363.205 411.417 359.461 405.539L358.614 406.06C362.414 412.026 366.66 416.618 371.36 419.817L371.92 419ZM359.462 405.541C355.77 399.663 352.709 392.219 350.289 383.197L349.319 383.437C351.756 392.525 354.851 400.069 358.612 406.057L359.462 405.541ZM350.289 383.197C348.56 376.748 347.565 370.876 347.299 365.577L346.295 365.61C346.565 370.994 347.575 376.937 349.319 383.437L350.289 383.197ZM347.299 365.577C347.032 360.271 347.377 355.549 348.326 351.405L347.346 351.169C346.373 355.419 346.025 360.234 346.295 365.61L347.299 365.577ZM348.326 351.405C349.276 347.253 350.734 343.582 352.696 340.387L351.835 339.86C349.812 343.155 348.317 346.927 347.346 351.169L348.326 351.405ZM352.696 340.387C354.662 337.184 357.011 334.438 359.741 332.145L359.084 331.382C356.269 333.745 353.853 336.572 351.835 339.86L352.696 340.387ZM359.745 332.142C362.469 329.8 365.498 327.882 368.834 326.389L368.408 325.481C364.986 327.013 361.876 328.981 359.079 331.385L359.745 332.142ZM368.839 326.387C372.222 324.831 375.764 323.595 379.466 322.679L379.207 321.713C375.446 322.644 371.844 323.9 368.403 325.483L368.839 326.387ZM379.466 322.679C382.992 321.805 386.354 321.237 389.552 320.971L389.451 319.98C386.193 320.25 382.778 320.828 379.207 321.713L379.466 322.679ZM389.552 320.971C392.767 320.704 395.631 320.595 398.146 320.643L398.148 319.648C395.591 319.6 392.691 319.711 389.451 319.98L389.552 320.971ZM398.147 320.643C401.058 320.691 403.779 320.858 406.312 321.141L406.408 320.152C403.839 319.865 401.085 319.697 398.147 319.648L398.147 320.643ZM405.889 320.81L409.632 330.964L410.575 330.637L406.832 320.483L405.889 320.81ZM410.163 330.308C407.624 329.963 404.856 329.749 401.859 329.666L401.848 330.661C404.814 330.743 407.546 330.954 410.043 331.294L410.163 330.308ZM401.863 329.666C399.288 329.572 396.31 329.678 392.931 329.981L393.038 330.972C396.388 330.672 399.322 330.569 401.843 330.661L401.863 329.666ZM392.932 329.981C389.584 330.274 386.033 330.886 382.28 331.815L382.539 332.781C386.249 331.862 389.748 331.26 393.037 330.972L392.932 329.981ZM382.28 331.815C377.269 333.056 373.072 334.949 369.702 337.505L370.321 338.299C373.563 335.839 377.631 333.996 382.539 332.781L382.28 331.815ZM369.706 337.502C366.321 340.015 363.776 343.185 362.077 347.005L362.997 347.419C364.628 343.753 367.066 340.716 370.317 338.302L369.706 337.502ZM362.078 347.002C360.366 350.779 359.532 355.281 359.558 360.493L360.562 360.505C360.537 355.398 361.355 351.042 362.996 347.423L362.078 347.002ZM359.558 360.497C359.617 365.653 360.542 371.552 362.322 378.19L363.293 377.949C361.528 371.367 360.621 365.553 360.562 360.502L359.558 360.497ZM362.322 378.19C364.211 385.229 366.378 391.315 368.829 396.444L369.736 396.031C367.318 390.971 365.17 384.945 363.293 377.949L362.322 378.19ZM368.829 396.445C371.27 401.534 374.08 405.609 377.267 408.653L377.958 407.942C374.882 405.005 372.138 401.04 369.735 396.03L368.829 396.445ZM377.267 408.653C380.46 411.703 384.069 413.68 388.087 414.566L388.29 413.594C384.469 412.752 381.026 410.873 377.958 407.942L377.267 408.653ZM388.087 414.566C392.1 415.451 396.575 415.271 401.5 414.051L401.241 413.085C396.429 414.277 392.116 414.438 388.29 413.594L388.087 414.566ZM401.5 414.051C405.225 413.129 408.407 411.853 411.039 410.216L410.494 409.371C407.969 410.942 404.888 412.182 401.241 413.085L401.5 414.051ZM411.037 410.218C413.678 408.592 415.855 407.003 417.561 405.451L416.875 404.713C415.226 406.213 413.102 407.765 410.496 409.37L411.037 410.218ZM417.562 405.45C419.54 403.636 421.167 401.685 422.439 399.596L421.577 399.071C420.356 401.075 418.79 402.957 416.873 404.714L417.562 405.45ZM422.493 399.213L416.008 375.037L415.038 375.277L421.523 399.454L422.493 399.213ZM415.38 374.678L405.557 377.399L405.842 378.358L415.666 375.636L415.38 374.678ZM405.57 377.396L396.97 379.525L397.229 380.491L405.829 378.362L405.57 377.396ZM397.563 379.823L393.752 370.772L392.826 371.142L396.637 380.193L397.563 379.823ZM393.419 371.44L424.064 363.853L423.805 362.887L393.16 370.474L393.419 371.44ZM423.449 363.49L436.911 413.677L437.881 413.437L424.419 363.25L423.449 363.49ZM437.266 413.074L430.168 414.831L430.427 415.797L437.525 414.04L437.266 413.074ZM458.9 408.522L458.415 408.643L458.544 409.126L459.029 409.005L458.9 408.522ZM432.723 310.933L432.594 310.45L432.108 310.57L432.238 311.053L432.723 310.933ZM445.213 307.841L445.699 307.721L445.569 307.238L445.084 307.358L445.213 307.841ZM471.39 405.43L471.519 405.913L472.005 405.793L471.875 405.31L471.39 405.43ZM459.385 408.402L433.208 310.813L432.238 311.053L458.415 408.643L459.385 408.402ZM432.853 311.416L445.343 308.324L445.084 307.358L432.594 310.45L432.853 311.416ZM444.728 307.961L470.905 405.55L471.875 405.31L445.699 307.721L444.728 307.961ZM471.26 404.947L458.77 408.039L459.029 409.005L471.519 405.913L471.26 404.947ZM487.811 318.224L488.145 317.857L486.896 316.739L487.326 318.344L487.811 318.224ZM508.724 396.187L508.853 396.67L509.339 396.549L509.209 396.067L508.724 396.187ZM496.711 399.161L496.226 399.281L496.356 399.764L496.841 399.644L496.711 399.161ZM470.535 301.572L470.405 301.089L469.92 301.209L470.049 301.692L470.535 301.572ZM483.502 298.361L483.838 297.996L483.635 297.813L483.373 297.878L483.502 298.361ZM555.672 363.633L555.336 363.998L556.592 365.133L556.157 363.513L555.672 363.633ZM534.759 285.67L534.63 285.187L534.145 285.308L534.274 285.79L534.759 285.67ZM546.772 282.696L547.257 282.576L547.128 282.093L546.642 282.213L546.772 282.696ZM572.949 380.286L573.075 380.769L573.564 380.651L573.434 380.165L572.949 380.286ZM560.508 383.293L560.175 383.66L560.376 383.839L560.635 383.777L560.508 383.293ZM487.326 318.344L508.238 396.307L509.209 396.067L488.297 318.104L487.326 318.344ZM508.594 395.704L496.582 398.678L496.841 399.644L508.853 396.67L508.594 395.704ZM497.197 399.041L471.02 301.451L470.049 301.692L496.226 399.281L497.197 399.041ZM470.664 302.054L483.632 298.844L483.373 297.878L470.405 301.089L470.664 302.054ZM483.167 298.726L555.336 363.998L556.007 363.268L483.838 297.996L483.167 298.726ZM556.157 363.513L535.245 285.55L534.274 285.79L555.186 363.753L556.157 363.513ZM534.889 286.153L546.901 283.179L546.642 282.213L534.63 285.187L534.889 286.153ZM546.286 282.816L572.463 380.406L573.434 380.165L547.257 282.576L546.286 282.816ZM572.822 379.802L560.382 382.809L560.635 383.777L573.075 380.769L572.822 379.802ZM560.842 382.926L488.145 317.857L487.478 318.591L560.175 383.66L560.842 382.926Z" fill="black" fill-opacity="0.85"/>
</g>
</g>
<defs>
<filter id="filter0_d" x="174.895" y="282.093" width="402.67" height="197.725" filterUnits="userSpaceOnUse" color-interpolation-filters="sRGB">
<feFlood flood-opacity="0" result="BackgroundImageFix"/>
<feColorMatrix in="SourceAlpha" type="matrix" values="0 0 0 0 0 0 0 0 0 0 0 0 0 0 0 0 0 0 127 0"/>
<feOffset dy="4"/>
<feGaussianBlur stdDeviation="2"/>
<feColorMatrix type="matrix" values="0 0 0 0 0 0 0 0 0 0 0 0 0 0 0 0 0 0 0.25 0"/>
<feBlend mode="normal" in2="BackgroundImageFix" result="effect1_dropShadow"/>
<feBlend mode="normal" in="SourceGraphic" in2="effect1_dropShadow" result="shape"/>
</filter>
</defs>
</svg>
