<svg width="888" height="653" viewBox="0 0 888 653" fill="none" xmlns="http://www.w3.org/2000/svg">
<g id="undraw_success_factors_fay0 1" clip-path="url(#clip0)">
<path id="Vector" d="M887.876 633.423C885.03 659.299 735.65 657.127 735.876 633.421C738.722 607.547 888.102 609.719 887.876 633.423Z" fill="#E6E6E6"/>
<g id="mansBody">
<path id="Vector_2" d="M785.259 567.02L779.204 580.14L768.102 579.131L761.038 555.918L772.139 549.863L785.259 567.02Z" fill="#FFB8B8"/>
<path id="Vector_3" d="M823.372 597.237L823.611 606.38L806.454 607.39V596.288L823.372 597.237Z" fill="#FFB8B8"/>
<path id="Vector_4" d="M817.555 430.772L813.518 511.511L823.611 599.316L793.333 603.353L774.158 492.336L768.102 416.642L817.555 430.772Z" fill="#2F2E41"/>
<path id="Vector_5" d="M864.99 401.504C864.99 401.504 877.101 481.234 851.87 507.474C826.639 533.715 792.324 580.14 792.324 580.14L768.102 549.863L829.666 484.262L817.555 439.855L768.102 416.642L776.176 361.134L848.842 360.125L864.99 401.504Z" fill="#2F2E41"/>
<path id="Vector_6" d="M805.444 216.812C817.707 216.812 827.648 206.871 827.648 194.609C827.648 182.346 817.707 172.405 805.444 172.405C793.182 172.405 783.241 182.346 783.241 194.609C783.241 206.871 793.182 216.812 805.444 216.812Z" fill="#FFB8B8"/>
<path id="Vector_7" d="M824.62 199.655C824.62 199.655 825.629 230.941 830.676 234.978C835.722 239.015 812.509 256.173 812.509 256.173L797.37 231.951V209.747L824.62 199.655Z" fill="#FFB8B8"/>
<path id="Vector_8" d="M814.528 242.043L826.781 223.541L833.703 232.96L843.796 261.219L835.722 371.226L788.287 372.236L782.232 246.08L797.37 227.914L814.528 242.043Z" fill="#D0CDE1"/>
<path id="Vector_9" d="M763.056 249.108L754.982 248.099C754.982 248.099 752.964 249.108 751.954 256.173C750.945 263.237 738.834 325.81 738.834 325.81L754.982 402.513L773.148 378.291L762.047 335.903L773.149 293.515L763.056 249.108Z" fill="#2F2E41"/>
<path id="Vector_10" d="M865.999 248.099H872.054L887.193 329.847L873.064 393.43L858.934 370.217L862.971 344.986L860.953 322.783L853.888 309.662L865.999 248.099Z" fill="#2F2E41"/>
<path id="Vector_11" d="M776.176 576.103C776.176 576.103 782.232 574.085 782.232 578.122C782.232 582.159 778.195 594.269 778.195 594.269C778.195 594.269 784.25 631.611 775.167 629.593C766.084 627.575 759.019 610.417 758.01 605.371C757.001 600.325 751.954 574.085 751.954 574.085C751.954 574.085 743.88 554.909 748.927 553.9C753.973 552.89 768.102 548.853 768.102 548.853C768.102 548.853 760.028 574.084 776.176 576.103Z" fill="#2F2E41"/>
<path id="Vector_12" d="M805.444 607.39C805.444 607.39 821.592 597.297 824.62 605.371C826.628 611.26 827.982 617.352 828.657 623.537C828.657 623.537 832.694 636.658 816.546 634.639C800.398 632.621 802.417 632.621 801.407 626.565C800.398 620.51 805.444 607.39 805.444 607.39Z" fill="#2F2E41"/>
<path id="Vector_13" d="M818.565 194.609L814.528 193.599C814.528 193.599 811.5 176.442 804.435 178.461C797.37 180.479 779.204 182.498 779.204 174.424C779.204 166.35 796.361 159.285 806.454 160.294C816.546 161.304 833.703 164.331 832.694 179.47C831.685 194.609 825.172 209.335 825.172 209.335L824.646 200.36L818.565 194.609Z" fill="#2F2E41"/>
<path id="Vector_14" d="M797.37 254.154L814.528 242.043L797.37 227.914L791.414 235.062L797.37 254.154Z" fill="#D0CDE1"/>
<path id="Vector_15" d="M829.666 253.145L814.528 242.043L826.638 223.877L833.703 232.96L829.666 253.145Z" fill="#D0CDE1"/>
<path id="Vector_16" d="M755.991 248.099L788.287 234.978L795.857 229.428L818.565 329.847L833.703 284.431L829.162 226.4L871.045 248.099L856.916 316.727L854.897 342.968L860.953 364.162C860.953 364.162 882.147 379.3 875.082 395.448C868.018 411.596 859.944 412.605 859.944 412.605C859.944 412.605 825.629 380.31 823.611 372.236C821.592 364.162 818.565 350.032 818.565 350.032C818.565 350.032 801.407 414.624 781.223 413.615C761.038 412.605 761.038 391.411 761.038 391.411L766.084 369.208L774.158 345.995L770.121 307.644L755.991 248.099Z" fill="#2F2E41"/>
</g>
<path id="Vector_17" d="M703.876 0.398865H0.30042V451H703.876V0.398865Z" fill="#E6E6E6"/>
<path id="Vector_18" d="M683.758 56.9155H20.419V228.688H683.758V56.9155Z" fill="white"/>
<g id="purpleBars">
<path id="Vector_19" d="M402.043 111.101H185.418V119.154H402.043V111.101Z" fill="#5A77BB"/>
<path id="Vector_20" d="M288.482 166.346H185.418V174.398H288.482V166.346Z" fill="#5A77BB"/>
</g>
<g id="greyBars">
<path id="Vector_21" d="M325.699 81.7271H185.418V89.7798H325.699V81.7271Z" fill="#E6E6E6"/>
<path id="Vector_22" d="M361.963 138.776H185.418V146.828H361.963V138.776Z" fill="#E6E6E6"/>
<path id="Vector_23" d="M340.968 193.915H185.418V201.968H340.968V193.915Z" fill="#E6E6E6"/>
</g>
<g id="smallGreyBlocks">
<path id="Vector_24" d="M138.658 106.539H121.48V123.716H138.658V106.539Z" fill="#E6E6E6"/>
<path id="Vector_25" d="M138.658 161.888H121.48V179.065H138.658V161.888Z" fill="#E6E6E6"/>
</g>
<g id="smallPurpleBlocks">
<path id="Vector_26" d="M138.658 78.8642H121.48V96.0415H138.658V78.8642Z" fill="#5A77BB"/>
<path id="Vector_27" d="M138.658 134.213H121.48V151.391H138.658V134.213Z" fill="#5A77BB"/>
<path id="Vector_28" d="M138.658 189.562H121.48V206.74H138.658V189.562Z" fill="#5A77BB"/>
</g>
<path id="block2Purple" d="M590.993 117.99H533.736V175.248H590.993V117.99Z" fill="#5A77BB"/>
<path id="Vector_29" d="M683.758 252.546H20.419V424.319H683.758V252.546Z" fill="white"/>
<path id="Vector_30" d="M168.241 267.812H151.064V284.989H168.241V267.812Z" fill="#E6E6E6"/>
<path id="Vector_31" d="M138.658 267.812H121.48V284.989H138.658V267.812Z" fill="#E6E6E6"/>
<g id="spinnerCircle">
<path id="Vector_32" d="M412.724 305.375C407.488 296.512 400.224 289.017 391.528 283.508C382.832 277.999 372.952 274.633 362.702 273.686C352.451 272.739 342.122 274.239 332.564 278.061C323.006 281.884 314.491 287.921 307.721 295.675L303.535 292.018C310.882 283.599 320.124 277.045 330.499 272.894C340.873 268.743 352.085 267.115 363.212 268.143C374.339 269.17 385.063 272.825 394.502 278.805C403.941 284.786 411.826 292.922 417.508 302.544L412.724 305.375Z" fill="#E6E6E6"/>
<path id="Vector_33" d="M415.344 377.794L410.73 374.692C417.563 364.501 421.376 352.586 421.729 340.321C422.081 328.057 418.96 315.942 412.724 305.375L417.508 302.544C424.279 314.015 427.668 327.166 427.285 340.481C426.902 353.796 422.763 366.731 415.344 377.794V377.794Z" fill="#5A77BB"/>
<path id="Vector_34" d="M304.114 385.539C292.623 372.705 286.221 356.113 286.115 338.888C286.008 321.662 292.204 304.992 303.535 292.018L307.721 295.675C297.283 307.628 291.575 322.985 291.674 338.854C291.772 354.722 297.669 370.007 308.254 381.83L304.114 385.539Z" fill="#5A77BB"/>
<path id="Vector_35" d="M356.714 409.052C346.787 409.045 336.973 406.947 327.91 402.896C318.848 398.845 310.74 392.931 304.114 385.539L308.255 381.83C314.864 389.214 323.074 394.99 332.257 398.718C341.439 402.445 351.353 404.025 361.239 403.336C371.125 402.647 380.724 399.709 389.301 394.744C397.879 389.78 405.208 382.921 410.73 374.692L415.344 377.794C408.89 387.418 400.164 395.305 389.939 400.757C379.713 406.208 368.302 409.058 356.714 409.052V409.052Z" fill="#5A77BB"/>
</g>
<g id="block1">
<path id="Vector_36" d="M590.993 305.032H533.736V362.29H590.993V305.032Z" fill="#E6E6E6"/>
</g>
<g id="black3Puple">
<path id="Vector_37" d="M176.352 342.249H119.095V399.507H176.352V342.249Z" fill="#5A77BB"/>
</g>
<path id="Vector_38" d="M703.576 0H0V29.8905H703.576V0Z" fill="#5A77BB"/>
<path id="Vector_39" d="M22.2122 20.8216C25.2718 20.8216 27.7522 18.3412 27.7522 15.2816C27.7522 12.222 25.2718 9.74162 22.2122 9.74162C19.1525 9.74162 16.6722 12.222 16.6722 15.2816C16.6722 18.3412 19.1525 20.8216 22.2122 20.8216Z" fill="white"/>
<path id="Vector_40" d="M43.2405 20.8216C46.3002 20.8216 48.7805 18.3412 48.7805 15.2816C48.7805 12.222 46.3002 9.74162 43.2405 9.74162C40.1809 9.74162 37.7006 12.222 37.7006 15.2816C37.7006 18.3412 40.1809 20.8216 43.2405 20.8216Z" fill="white"/>
<path id="Vector_41" d="M64.2689 20.8216C67.3285 20.8216 69.8088 18.3412 69.8088 15.2816C69.8088 12.222 67.3285 9.74162 64.2689 9.74162C61.2092 9.74162 58.7289 12.222 58.7289 15.2816C58.7289 18.3412 61.2092 20.8216 64.2689 20.8216Z" fill="white"/>
</g>
<defs>
<clipPath id="clip0">
<rect width="887.876" height="652.024" fill="white"/>
</clipPath>
</defs>
</svg>
